<svg data-v-423bf9ae="" xmlns="http://www.w3.org/2000/svg" viewBox="0 0 573.1670858843594 60" class="font"><!----><!----><!----><g data-v-423bf9ae="" id="641c85aa-0b4e-49c8-96bd-ea88d1b243ba" fill="white" transform="matrix(4.987531282777601,0,0,4.987531282777601,-1.9950151348199938,-12.01995010432153)"><path d="M13.46 11.58L13.46 11.58L13.46 11.58Q13.46 12.60 13.11 13.15L13.11 13.15L15.13 13.15L15.13 13.15Q15.00 13.19 14.83 13.34L14.83 13.34L14.83 13.34Q14.66 13.49 14.48 13.65L14.48 13.65L14.48 13.65Q13.99 14.08 13.80 14.08L13.80 14.08L11.77 14.08L11.77 14.08Q12.11 13.58 12.11 12.70L12.11 12.70L12.11 12.70Q12.11 11.83 12.07 11.02L12.07 11.02L12.07 11.02Q12.02 10.21 12.00 9.63L12.00 9.63L12.00 9.63Q11.97 9.04 11.95 8.66L11.95 8.66L11.95 8.66Q11.94 8.28 11.92 7.89L11.92 7.89L11.92 7.89Q11.87 6.75 11.85 6.38L11.85 6.38L11.85 6.38Q11.24 7.44 10.61 8.58L10.61 8.58L10.61 8.58Q9.97 9.71 9.52 10.50L9.52 10.50L9.52 10.50Q9.07 11.29 8.81 11.80L8.81 11.80L8.81 11.80Q8.54 12.31 8.25 12.82L8.25 12.82L8.25 12.82Q8.19 12.92 7.60 13.30L7.60 13.30L7.60 13.30Q7.01 13.69 6.92 13.75L6.92 13.75L6.92 13.75Q6.55 12.60 5.98 11.61L5.98 11.61L5.98 11.61Q5.41 10.62 5.04 10.02L5.04 10.02L5.04 10.02Q4.68 9.43 4.32 8.83L4.32 8.83L3.23 7.02L3.23 7.02Q2.94 10.55 2.79 11.34L2.79 11.34L2.79 11.34Q2.63 12.13 2.49 12.53L2.49 12.53L2.49 12.53Q2.35 12.93 2.14 13.15L2.14 13.15L4.33 13.15L4.33 13.15Q3.19 14.08 3.00 14.08L3.00 14.08L0.75 14.08L0.75 14.08Q1.15 13.69 1.42 12.35L1.42 12.35L1.42 12.35Q1.72 10.86 2.12 5.17L2.12 5.17L0.40 5.17L0.40 5.17Q0.90 4.68 1.59 4.30L1.59 4.30L1.59 4.30Q1.68 4.25 1.73 4.25L1.73 4.25L3.45 4.25L3.45 4.25Q4.03 5.20 4.59 6.14L4.59 6.14L5.73 8.03L5.73 8.03Q6.02 8.51 6.31 8.99L6.31 8.99L6.31 8.99Q6.60 9.46 6.88 9.94L6.88 9.94L6.88 9.94Q7.56 11.11 7.91 11.92L7.91 11.92L7.91 11.92Q8.56 10.78 9.44 9.17L9.44 9.17L9.44 9.17Q11.01 6.28 11.77 4.97L11.77 4.97L11.77 4.97Q11.90 4.76 12.78 4.24L12.78 4.24L12.78 4.24Q12.98 4.12 13.10 4.04L13.10 4.04L13.10 4.04Q13.26 7.03 13.33 8.78L13.33 8.78L13.33 8.78Q13.41 10.53 13.43 10.88L13.43 10.88L13.43 10.88Q13.46 11.22 13.46 11.58ZM17.86 7.86L17.86 7.86Q18.33 7.59 18.86 7.45L18.86 7.45L18.86 7.45Q19.39 7.30 19.75 7.30L19.75 7.30L19.75 7.30Q20.11 7.30 20.38 7.35L20.38 7.35L20.38 5.11L20.38 5.11Q20.38 4.38 20.12 4.14L20.12 4.14L20.12 4.14Q20.00 4.03 19.82 4.03L19.82 4.03L19.82 4.03Q19.61 4.03 19.20 4.13L19.20 4.13L19.20 4.13Q20.91 2.82 21.71 2.41L21.71 2.41L21.71 12.19L21.71 12.19Q21.71 12.74 21.83 12.92L21.83 12.92L21.83 12.92Q22.03 13.26 22.54 13.26L22.54 13.26L22.54 13.26Q22.74 13.26 22.94 13.22L22.94 13.22L22.94 13.22Q22.74 13.38 22.55 13.55L22.55 13.55L22.55 13.55Q22.35 13.72 22.14 13.86L22.14 13.86L22.14 13.86Q21.66 14.19 21.29 14.19L21.29 14.19L21.29 14.19Q20.92 14.19 20.76 14.12L20.76 14.12L20.76 14.12Q20.60 14.05 20.51 13.92L20.51 13.92L20.51 13.92Q20.37 13.73 20.37 13.18L20.37 13.18L20.37 13.18Q18.97 14.22 18.12 14.22L18.12 14.22L18.12 14.22Q16.87 14.22 16.21 13.38L16.21 13.38L16.21 13.38Q15.59 12.62 15.59 11.33L15.59 11.33L15.59 11.33Q15.59 10.28 16.25 9.32L16.25 9.32L16.25 9.32Q16.86 8.42 17.86 7.86L17.86 7.86ZM20.38 12.60L20.38 9.21L20.38 9.21Q20.08 8.72 19.58 8.47L19.58 8.47L19.58 8.47Q19.09 8.22 18.56 8.22L18.56 8.22L18.56 8.22Q18.03 8.22 17.71 8.40L17.71 8.40L17.71 8.40Q17.40 8.58 17.22 8.88L17.22 8.88L17.22 8.88Q16.91 9.40 16.91 10.18L16.91 10.18L16.91 10.18Q16.91 10.96 17.05 11.49L17.05 11.49L17.05 11.49Q17.19 12.02 17.48 12.43L17.48 12.43L17.48 12.43Q18.12 13.30 19.36 13.30L19.36 13.30L19.36 13.30Q19.63 13.30 19.89 13.14L19.89 13.14L19.89 13.14Q20.38 12.85 20.38 12.60L20.38 12.60ZM25.00 12.22L25.72 13.36L24.39 14.29L23.67 13.15L25.00 12.22ZM33.19 5.17L29.61 5.17L29.61 5.17Q30.75 4.25 30.94 4.25L30.94 4.25L38.65 4.25L38.65 4.25Q38.56 4.26 38.23 4.55L38.23 4.55L38.23 4.55Q37.91 4.83 37.78 4.94L37.78 4.94L37.78 4.94Q37.46 5.17 37.32 5.17L37.32 5.17L34.52 5.17L34.52 11.43L34.52 11.43Q34.52 12.26 34.24 12.80L34.24 12.80L34.24 12.80Q34.12 13.03 33.97 13.15L33.97 13.15L36.22 13.15L36.22 13.15Q36.13 13.17 35.80 13.45L35.80 13.45L35.80 13.45Q35.47 13.74 35.34 13.84L35.34 13.84L35.34 13.84Q35.03 14.08 34.89 14.08L34.89 14.08L32.51 14.08L32.51 14.08Q32.92 13.71 33.02 13.46L33.02 13.46L33.02 13.46Q33.19 13.06 33.19 12.45L33.19 12.45L33.19 5.17ZM42.03 9.28L42.03 12.06L42.02 12.54L42.02 12.54Q42.02 13.07 42.32 13.21L42.32 13.21L42.32 13.21Q42.44 13.27 42.59 13.27L42.59 13.27L42.59 13.27Q42.83 13.27 43.08 13.16L43.08 13.16L43.08 13.16Q42.82 13.27 42.63 13.45L42.63 13.45L42.63 13.45Q42.44 13.62 42.24 13.79L42.24 13.79L42.24 13.79Q41.75 14.21 41.25 14.21L41.25 14.21L41.25 14.21Q40.75 14.21 40.71 13.63L40.71 13.63L40.71 13.63Q40.70 13.48 40.70 13.33L40.70 13.33L40.70 13.33Q39.47 14.18 38.45 14.18L38.45 14.18L38.45 14.18Q37.58 14.18 37.24 13.66L37.24 13.66L37.24 13.66Q37.12 13.47 37.12 13.13L37.12 13.13L37.12 13.13Q37.12 12.80 37.32 12.46L37.32 12.46L37.32 12.46Q37.53 12.12 37.84 11.84L37.84 11.84L37.84 11.84Q38.40 11.32 39.20 10.99L39.20 10.99L39.20 10.99Q39.79 10.73 40.71 10.70L40.71 10.70L40.71 10.40L40.71 10.40Q40.71 9.31 40.51 8.93L40.51 8.93L40.51 8.93Q40.31 8.54 40.00 8.36L40.00 8.36L40.00 8.36Q39.68 8.18 39.26 8.18L39.26 8.18L39.26 8.18Q38.54 8.18 37.99 8.46L37.99 8.46L37.99 8.46Q38.75 7.84 39.09 7.64L39.09 7.64L39.09 7.64Q39.81 7.24 40.40 7.24L40.40 7.24L40.40 7.24Q40.98 7.24 41.28 7.41L41.28 7.41L41.28 7.41Q41.57 7.58 41.74 7.86L41.74 7.86L41.74 7.86Q42.03 8.35 42.03 9.28L42.03 9.28ZM38.82 13.04L38.82 13.04L38.82 13.04Q38.99 13.16 39.20 13.21L39.20 13.21L39.20 13.21Q39.42 13.27 39.85 13.27L39.85 13.27L39.85 13.27Q40.28 13.27 40.71 13.06L40.71 13.06L40.71 11.63L39.60 11.63L39.60 11.63Q39.01 11.63 38.56 11.71L38.56 11.71L38.56 11.71Q38.47 12.00 38.47 12.27L38.47 12.27L38.47 12.27Q38.47 12.54 38.56 12.73L38.56 12.73L38.56 12.73Q38.66 12.92 38.82 13.04ZM44.54 13.62L44.54 13.62L44.55 9.22L44.55 9.22Q44.55 8.76 44.43 8.61L44.43 8.61L44.43 8.61Q44.21 8.33 43.84 8.33L43.84 8.33L43.84 8.33Q43.46 8.33 43.17 8.44L43.17 8.44L43.17 8.44Q43.35 8.37 43.63 8.12L43.63 8.12L43.63 8.12Q44.16 7.64 44.38 7.55L44.38 7.55L44.38 7.55Q44.79 7.39 45.10 7.39L45.10 7.39L45.10 7.39Q45.41 7.39 45.56 7.49L45.56 7.49L45.56 7.49Q45.72 7.59 45.79 7.77L45.79 7.77L45.79 7.77Q45.88 7.98 45.88 8.57L45.88 8.57L45.88 8.57Q47.15 7.44 48.27 7.44L48.27 7.44L48.27 7.44Q48.88 7.44 49.33 7.83L49.33 7.83L49.33 7.83Q49.80 8.24 49.80 8.83L49.80 8.83L49.80 12.20L49.80 12.20Q49.80 12.71 49.91 12.90L49.91 12.90L49.91 12.90Q50.11 13.26 50.59 13.26L50.59 13.26L50.59 13.26Q50.87 13.26 51.11 13.16L51.11 13.16L51.11 13.16Q50.50 13.69 50.27 13.84L50.27 13.84L50.27 13.84Q49.74 14.18 49.34 14.18L49.34 14.18L49.34 14.18Q48.94 14.18 48.77 14.04L48.77 14.04L48.77 14.04Q48.60 13.90 48.54 13.68L48.54 13.68L48.54 13.68Q48.46 13.44 48.46 12.70L48.46 12.70L48.46 10.14L48.46 10.14Q48.46 8.92 47.66 8.53L47.66 8.53L47.66 8.53Q47.37 8.39 46.97 8.39L46.97 8.39L46.97 8.39Q45.98 8.39 45.90 9.86L45.90 9.86L45.90 9.86Q45.88 10.23 45.88 10.53L45.88 10.53L45.88 12.64L45.88 12.64Q45.88 13.08 46.14 13.23L46.14 13.23L46.14 13.23Q46.24 13.30 46.38 13.30L46.38 13.30L46.38 13.30Q46.53 13.30 46.68 13.23L46.68 13.23L46.68 13.23Q46.54 13.35 46.34 13.52L46.34 13.52L46.34 13.52Q46.14 13.69 45.92 13.85L45.92 13.85L45.92 13.85Q45.38 14.22 45.06 14.22L45.06 14.22L45.06 14.22Q44.54 14.22 44.54 13.62ZM58.01 8.11L58.01 8.11L58.01 8.11Q58.01 9.62 55.85 12.82L55.85 12.82L55.85 12.82Q55.73 13.00 55.61 13.19L55.61 13.19L55.61 13.19Q55.49 13.38 55.40 13.49L55.40 13.49L55.40 13.49Q55.30 13.60 55.19 13.68L55.19 13.68L55.19 13.68Q55.08 13.75 54.94 13.85L54.94 13.85L54.94 13.85Q54.80 13.94 54.64 14.03L54.64 14.03L54.64 14.03Q54.49 14.12 54.36 14.21L54.36 14.21L54.36 14.21Q54.04 14.42 54.04 14.44L54.04 14.44L54.04 14.44Q53.76 13.30 53.46 12.16L53.46 12.16L53.46 12.16Q53.16 11.03 52.90 10.39L52.90 10.39L52.90 10.39Q52.64 9.74 52.53 9.48L52.53 9.48L52.53 9.48Q52.42 9.22 52.27 8.98L52.27 8.98L52.27 8.98Q51.93 8.41 51.49 8.41L51.49 8.41L51.49 8.41Q51.25 8.41 50.93 8.59L50.93 8.59L50.93 8.59Q51.90 7.46 52.87 7.46L52.87 7.46L52.87 7.46Q53.59 7.46 54.41 10.01L54.41 10.01L54.41 10.01Q54.75 11.07 54.93 11.78L54.93 11.78L54.93 11.78Q55.11 12.49 55.18 12.76L55.18 12.76L55.18 12.76Q56.15 11.23 56.53 9.94L56.53 9.94L56.53 9.94Q56.68 9.44 56.68 9.02L56.68 9.02L56.68 9.02Q56.68 8.39 56.21 8.39L56.21 8.39L56.21 8.39Q56.03 8.39 55.80 8.48L55.80 8.48L55.80 8.48Q56.03 8.39 56.21 8.22L56.21 8.22L56.21 8.22Q56.39 8.05 56.57 7.89L56.57 7.89L56.57 7.89Q57.02 7.47 57.51 7.47L57.51 7.47L57.51 7.47Q58.01 7.47 58.01 8.11ZM59.58 3.41L60.91 2.48L60.95 3.26L60.95 3.62L60.95 3.62Q60.95 3.94 60.87 4.02L60.87 4.02L60.87 4.02Q60.79 4.09 60.69 4.16L60.69 4.16L60.69 4.16Q60.31 4.43 59.58 4.89L59.58 4.89L59.58 4.89Q59.62 4.21 59.62 4.19L59.62 4.19L59.62 4.19Q59.62 4.16 59.58 3.41L59.58 3.41ZM62.34 13.24L62.34 13.24L62.34 13.24Q62.13 13.41 61.94 13.58L61.94 13.58L61.94 13.58Q61.74 13.75 61.53 13.89L61.53 13.89L61.53 13.89Q61.04 14.21 60.59 14.21L60.59 14.21L60.59 14.21Q60.16 14.21 59.99 14.08L59.99 14.08L59.99 14.08Q59.64 13.82 59.64 13.13L59.64 13.13L59.64 9.88L59.64 9.88Q59.64 9.15 59.38 8.93L59.38 8.93L59.38 8.93Q59.25 8.83 59.11 8.83L59.11 8.83L59.11 8.83Q58.97 8.83 58.87 8.84L58.87 8.84L58.87 8.84Q58.77 8.86 58.67 8.88L58.67 8.88L58.67 8.88Q58.56 8.90 58.45 8.92L58.45 8.92L58.45 8.92Q58.80 8.65 59.09 8.44L59.09 8.44L59.09 8.44Q59.39 8.23 59.60 8.09L59.60 8.09L59.60 8.09Q59.81 7.94 60.19 7.68L60.19 7.68L60.19 7.68Q60.57 7.42 60.97 7.21L60.97 7.21L60.97 12.03L60.97 12.03Q60.97 12.73 61.06 12.91L61.06 12.91L61.06 12.91Q61.25 13.29 61.91 13.29L61.91 13.29L61.91 13.29Q62.08 13.29 62.34 13.24ZM68.95 7.44L68.95 7.44L68.95 7.44Q68.12 8.65 66.94 8.65L66.94 8.65L66.94 8.65Q66.75 8.65 66.45 8.50L66.45 8.50L66.45 8.50Q65.88 8.22 65.68 8.22L65.68 8.22L65.68 8.22Q65.47 8.22 65.35 8.35L65.35 8.35L65.35 8.35Q65.23 8.48 65.15 8.71L65.15 8.71L65.15 8.71Q64.96 9.21 64.96 10.02L64.96 10.02L64.96 12.64L64.96 12.64Q64.96 13.08 65.23 13.23L65.23 13.23L65.23 13.23Q65.32 13.30 65.47 13.30L65.47 13.30L65.47 13.30Q65.61 13.30 65.77 13.23L65.77 13.23L65.77 13.23Q65.63 13.35 65.50 13.52L65.50 13.52L65.50 13.52Q65.37 13.69 65.21 13.84L65.21 13.84L65.21 13.84Q64.82 14.22 64.29 14.22L64.29 14.22L64.29 14.22Q64.01 14.22 63.82 14.04L63.82 14.04L63.82 14.04Q63.63 13.87 63.63 13.62L63.63 13.62L63.63 9.68L63.63 9.68Q63.63 9.44 63.64 9.20L63.64 9.20L63.64 9.20Q63.64 8.96 63.59 8.76L63.59 8.76L63.59 8.76Q63.46 8.33 62.84 8.33L62.84 8.33L62.84 8.33Q62.55 8.33 62.25 8.44L62.25 8.44L62.25 8.44Q62.43 8.38 62.71 8.12L62.71 8.12L62.71 8.12Q63.26 7.63 63.47 7.55L63.47 7.55L63.47 7.55Q63.91 7.39 64.18 7.39L64.18 7.39L64.18 7.39Q64.45 7.39 64.60 7.47L64.60 7.47L64.60 7.47Q64.74 7.55 64.83 7.68L64.83 7.68L64.83 7.68Q64.96 7.91 64.96 8.38L64.96 8.38L64.96 8.38Q65.16 8.23 65.40 8.04L65.40 8.04L65.40 8.04Q65.63 7.85 65.88 7.68L65.88 7.68L65.88 7.68Q66.49 7.28 66.94 7.28L66.94 7.28L66.94 7.28Q67.21 7.28 67.50 7.43L67.50 7.43L67.50 7.43Q67.80 7.58 67.94 7.65L67.94 7.65L67.94 7.65Q68.09 7.72 68.21 7.72L68.21 7.72L68.21 7.72Q68.48 7.72 68.95 7.44ZM77.17 5.83L77.17 5.83L77.17 5.83Q77.40 5.60 77.40 5.49L77.40 5.49L77.40 5.49Q77.40 5.39 77.30 5.31L77.30 5.31L77.30 5.31Q77.21 5.24 77.05 5.18L77.05 5.18L77.05 5.18Q76.90 5.13 76.71 5.09L76.71 5.09L76.71 5.09Q76.52 5.05 76.34 5.03L76.34 5.03L76.34 5.03Q75.99 4.99 75.74 4.99L75.74 4.99L75.74 4.99Q75.49 4.99 75.16 5.04L75.16 5.04L75.16 5.04Q74.84 5.09 74.57 5.22L74.57 5.22L74.57 5.22Q73.94 5.54 73.94 6.16L73.94 6.16L73.94 6.16Q73.94 6.78 74.17 7.15L74.17 7.15L74.17 7.15Q74.40 7.53 74.77 7.77L74.77 7.77L74.77 7.77Q75.14 8.02 75.62 8.18L75.62 8.18L75.62 8.18Q76.09 8.35 76.59 8.49L76.59 8.49L76.59 8.49Q77.09 8.63 77.56 8.80L77.56 8.80L77.56 8.80Q78.04 8.96 78.41 9.21L78.41 9.21L78.41 9.21Q79.24 9.78 79.24 10.79L79.24 10.79L79.24 10.79Q79.24 11.79 78.39 12.63L78.39 12.63L78.39 12.63Q77.68 13.36 76.49 13.82L76.49 13.82L76.49 13.82Q75.41 14.25 74.43 14.25L74.43 14.25L74.43 14.25Q73.82 14.25 73.33 14.10L73.33 14.10L73.33 14.10Q72.83 13.96 72.63 13.85L72.63 13.85L72.63 13.85Q72.15 13.61 72.15 13.28L72.15 13.28L72.15 13.28Q72.15 12.76 73.71 11.90L73.71 11.90L73.71 11.90Q73.51 12.13 73.51 12.34L73.51 12.34L73.51 12.34Q73.51 12.54 73.64 12.69L73.64 12.69L73.64 12.69Q73.77 12.84 73.99 12.94L73.99 12.94L73.99 12.94Q74.20 13.05 74.46 13.12L74.46 13.12L74.46 13.12Q74.72 13.19 74.98 13.23L74.98 13.23L74.98 13.23Q75.46 13.30 75.85 13.30L75.85 13.30L75.85 13.30Q76.24 13.30 76.62 13.23L76.62 13.23L76.62 13.23Q76.99 13.16 77.29 12.98L77.29 12.98L77.29 12.98Q77.95 12.58 77.95 11.73L77.95 11.73L77.95 11.73Q77.95 10.40 76.27 9.76L76.27 9.76L76.27 9.76Q75.79 9.58 75.29 9.42L75.29 9.42L75.29 9.42Q74.79 9.26 74.31 9.09L74.31 9.09L74.31 9.09Q73.83 8.92 73.46 8.68L73.46 8.68L73.46 8.68Q72.63 8.13 72.63 7.24L72.63 7.24L72.63 7.24Q72.63 6.49 73.47 5.70L73.47 5.70L73.47 5.70Q74.19 5.02 75.29 4.53L75.29 4.53L75.29 4.53Q76.34 4.05 77.08 4.05L77.08 4.05L77.08 4.05Q77.74 4.05 78.14 4.18L78.14 4.18L78.14 4.18Q78.54 4.30 78.65 4.36L78.65 4.36L78.65 4.36Q78.76 4.43 78.76 4.52L78.76 4.52L78.76 4.52Q78.76 4.60 78.66 4.72L78.66 4.72L78.66 4.72Q78.57 4.84 78.42 4.98L78.42 4.98L78.42 4.98Q78.26 5.11 78.08 5.25L78.08 5.25L78.08 5.25Q77.90 5.39 77.72 5.50L77.72 5.50L77.72 5.50Q77.31 5.77 77.17 5.83ZM84.75 9.28L84.75 12.06L84.74 12.54L84.74 12.54Q84.74 13.07 85.04 13.21L85.04 13.21L85.04 13.21Q85.16 13.27 85.31 13.27L85.31 13.27L85.31 13.27Q85.54 13.27 85.80 13.16L85.80 13.16L85.80 13.16Q85.54 13.27 85.35 13.45L85.35 13.45L85.35 13.45Q85.16 13.62 84.96 13.79L84.96 13.79L84.96 13.79Q84.46 14.21 83.97 14.21L83.97 14.21L83.97 14.21Q83.47 14.21 83.43 13.63L83.43 13.63L83.43 13.63Q83.42 13.48 83.42 13.33L83.42 13.33L83.42 13.33Q82.19 14.18 81.16 14.18L81.16 14.18L81.16 14.18Q80.29 14.18 79.96 13.66L79.96 13.66L79.96 13.66Q79.84 13.47 79.84 13.13L79.84 13.13L79.84 13.13Q79.84 12.80 80.04 12.46L80.04 12.46L80.04 12.46Q80.25 12.12 80.56 11.84L80.56 11.84L80.56 11.84Q81.12 11.32 81.92 10.99L81.92 10.99L81.92 10.99Q82.50 10.73 83.43 10.70L83.43 10.70L83.43 10.40L83.43 10.40Q83.43 9.31 83.23 8.93L83.23 8.93L83.23 8.93Q83.03 8.54 82.71 8.36L82.71 8.36L82.71 8.36Q82.40 8.18 81.98 8.18L81.98 8.18L81.98 8.18Q81.26 8.18 80.71 8.46L80.71 8.46L80.71 8.46Q81.46 7.84 81.81 7.64L81.81 7.64L81.81 7.64Q82.53 7.24 83.11 7.24L83.11 7.24L83.11 7.24Q83.70 7.24 83.99 7.41L83.99 7.41L83.99 7.41Q84.29 7.58 84.46 7.86L84.46 7.86L84.46 7.86Q84.75 8.35 84.75 9.28L84.75 9.28ZM81.54 13.04L81.54 13.04L81.54 13.04Q81.70 13.16 81.92 13.21L81.92 13.21L81.92 13.21Q82.14 13.27 82.57 13.27L82.57 13.27L82.57 13.27Q83.00 13.27 83.43 13.06L83.43 13.06L83.43 11.63L82.32 11.63L82.32 11.63Q81.72 11.63 81.28 11.71L81.28 11.71L81.28 11.71Q81.19 12.00 81.19 12.27L81.19 12.27L81.19 12.27Q81.19 12.54 81.28 12.73L81.28 12.73L81.28 12.73Q81.38 12.92 81.54 13.04ZM92.59 7.44L92.59 7.44L92.59 7.44Q91.77 8.65 90.59 8.65L90.59 8.65L90.59 8.65Q90.40 8.65 90.10 8.50L90.10 8.50L90.10 8.50Q89.52 8.22 89.32 8.22L89.32 8.22L89.32 8.22Q89.12 8.22 89.00 8.35L89.00 8.35L89.00 8.35Q88.87 8.48 88.79 8.71L88.79 8.71L88.79 8.71Q88.61 9.21 88.61 10.02L88.61 10.02L88.61 12.64L88.61 12.64Q88.61 13.08 88.87 13.23L88.87 13.23L88.87 13.23Q88.97 13.30 89.11 13.30L89.11 13.30L89.11 13.30Q89.26 13.30 89.41 13.23L89.41 13.23L89.41 13.23Q89.28 13.35 89.15 13.52L89.15 13.52L89.15 13.52Q89.02 13.69 88.85 13.84L88.85 13.84L88.85 13.84Q88.46 14.22 87.93 14.22L87.93 14.22L87.93 14.22Q87.66 14.22 87.47 14.04L87.47 14.04L87.47 14.04Q87.27 13.87 87.27 13.62L87.27 13.62L87.27 9.68L87.27 9.68Q87.27 9.44 87.28 9.20L87.28 9.20L87.28 9.20Q87.29 8.96 87.23 8.76L87.23 8.76L87.23 8.76Q87.10 8.33 86.49 8.33L86.49 8.33L86.49 8.33Q86.19 8.33 85.90 8.44L85.90 8.44L85.90 8.44Q86.08 8.38 86.36 8.12L86.36 8.12L86.36 8.12Q86.91 7.63 87.12 7.55L87.12 7.55L87.12 7.55Q87.55 7.39 87.82 7.39L87.82 7.39L87.82 7.39Q88.09 7.39 88.24 7.47L88.24 7.47L88.24 7.47Q88.39 7.55 88.47 7.68L88.47 7.68L88.47 7.68Q88.61 7.91 88.61 8.38L88.61 8.38L88.61 8.38Q88.81 8.23 89.04 8.04L89.04 8.04L89.04 8.04Q89.28 7.85 89.53 7.68L89.53 7.68L89.53 7.68Q90.14 7.28 90.59 7.28L90.59 7.28L90.59 7.28Q90.86 7.28 91.15 7.43L91.15 7.43L91.15 7.43Q91.44 7.58 91.59 7.65L91.59 7.65L91.59 7.65Q91.73 7.72 91.85 7.72L91.85 7.72L91.85 7.72Q92.13 7.72 92.59 7.44ZM96.37 8.27L96.37 8.27L96.37 8.27Q96.41 8.24 96.52 8.15L96.52 8.15L96.52 8.15Q96.63 8.07 96.76 7.96L96.76 7.96L96.76 7.96Q96.89 7.86 97.04 7.75L97.04 7.75L97.04 7.75Q97.18 7.64 97.31 7.55L97.31 7.55L97.31 7.55Q97.60 7.33 97.67 7.33L97.67 7.33L97.67 7.33Q97.73 7.33 97.83 7.49L97.83 7.49L97.83 7.49Q97.92 7.64 98.02 7.83L98.02 7.83L98.02 7.83Q98.11 8.03 98.18 8.21L98.18 8.21L98.18 8.21Q98.25 8.39 98.46 8.92L98.46 8.92L98.46 8.92Q99.01 10.29 99.57 12.52L99.57 12.52L99.57 12.52Q100.36 11.06 100.54 10.45L100.54 10.45L100.54 10.45Q100.72 9.84 100.72 9.60L100.72 9.60L100.72 9.60Q100.72 9.36 100.69 9.16L100.69 9.16L100.69 9.16Q100.66 8.96 100.59 8.78L100.59 8.78L100.59 8.78Q100.41 8.35 100.07 8.35L100.07 8.35L100.07 8.35Q99.91 8.35 99.75 8.44L99.75 8.44L99.75 8.44Q99.93 8.35 100.13 8.18L100.13 8.18L100.13 8.18Q100.32 8.00 100.53 7.84L100.53 7.84L100.53 7.84Q101.04 7.43 101.29 7.43L101.29 7.43L101.29 7.43Q101.53 7.43 101.67 7.53L101.67 7.53L101.67 7.53Q101.80 7.62 101.89 7.77L101.89 7.77L101.89 7.77Q102.05 8.05 102.05 8.50L102.05 8.50L102.05 8.50Q102.05 8.96 101.87 9.55L101.87 9.55L101.87 9.55Q101.69 10.13 101.41 10.71L101.41 10.71L101.41 10.71Q101.07 11.42 100.58 12.20L100.58 12.20L100.58 12.20Q100.10 12.97 100.00 13.14L100.00 13.14L100.00 13.14Q99.91 13.30 99.84 13.40L99.84 13.40L99.84 13.40Q99.76 13.49 99.67 13.56L99.67 13.56L99.67 13.56Q99.59 13.63 99.46 13.72L99.46 13.72L99.46 13.72Q99.33 13.81 99.18 13.91L99.18 13.91L99.18 13.91Q99.03 14.01 98.89 14.11L98.89 14.11L98.89 14.11Q98.75 14.20 98.63 14.27L98.63 14.27L98.63 14.27Q98.52 14.35 98.46 14.38L98.46 14.38L98.46 14.38Q97.91 12.04 97.47 10.75L97.47 10.75L97.47 10.75Q97.19 11.46 96.83 12.16L96.83 12.16L96.83 12.16Q96.48 12.87 96.39 13.07L96.39 13.07L96.39 13.07Q96.30 13.28 96.23 13.38L96.23 13.38L96.23 13.38Q96.16 13.48 96.07 13.55L96.07 13.55L96.07 13.55Q95.98 13.62 95.85 13.71L95.85 13.71L95.85 13.71Q95.72 13.80 95.57 13.91L95.57 13.91L95.57 13.91Q95.42 14.01 95.27 14.11L95.27 14.11L95.27 14.11Q94.98 14.29 94.86 14.38L94.86 14.38L94.86 14.38Q94.81 14.18 94.73 13.81L94.73 13.81L94.73 13.81Q94.66 13.45 94.55 12.98L94.55 12.98L94.55 12.98Q94.44 12.52 94.31 11.99L94.31 11.99L94.31 11.99Q94.17 11.46 94.01 10.95L94.01 10.95L94.01 10.95Q93.84 10.43 93.66 9.96L93.66 9.96L93.66 9.96Q93.47 9.48 93.26 9.12L93.26 9.12L93.26 9.12Q92.81 8.33 92.36 8.33L92.36 8.33L92.36 8.33Q92.15 8.33 91.94 8.46L91.94 8.46L91.94 8.46Q92.57 7.81 93.29 7.50L93.29 7.50L93.29 7.50Q93.55 7.39 93.71 7.39L93.71 7.39L93.71 7.39Q93.95 7.39 94.12 7.53L94.12 7.53L94.12 7.53Q94.29 7.67 94.47 8.00L94.47 8.00L94.47 8.00Q94.66 8.33 94.83 8.76L94.83 8.76L94.83 8.76Q95.01 9.20 95.17 9.70L95.17 9.70L95.17 9.70Q95.33 10.19 95.47 10.66L95.47 10.66L95.47 10.66Q95.66 11.33 95.88 12.17L95.88 12.17L95.88 12.17Q96.01 11.87 96.16 11.51L96.16 11.51L96.16 11.51Q96.31 11.16 96.44 10.79L96.44 10.79L96.44 10.79Q96.74 9.92 96.74 9.30L96.74 9.30L96.74 9.30Q96.74 8.67 96.37 8.27ZM107.48 9.28L107.48 12.06L107.47 12.54L107.47 12.54Q107.47 13.07 107.77 13.21L107.77 13.21L107.77 13.21Q107.88 13.27 108.04 13.27L108.04 13.27L108.04 13.27Q108.27 13.27 108.53 13.16L108.53 13.16L108.53 13.16Q108.27 13.27 108.08 13.45L108.08 13.45L108.08 13.45Q107.88 13.62 107.69 13.79L107.69 13.79L107.69 13.79Q107.19 14.21 106.70 14.21L106.70 14.21L106.70 14.21Q106.20 14.21 106.16 13.63L106.16 13.63L106.16 13.63Q106.15 13.48 106.15 13.33L106.15 13.33L106.15 13.33Q104.92 14.18 103.89 14.18L103.89 14.18L103.89 14.18Q103.02 14.18 102.69 13.66L102.69 13.66L102.69 13.66Q102.57 13.47 102.57 13.13L102.57 13.13L102.57 13.13Q102.57 12.80 102.77 12.46L102.77 12.46L102.77 12.46Q102.98 12.12 103.29 11.84L103.29 11.84L103.29 11.84Q103.85 11.32 104.64 10.99L104.64 10.99L104.64 10.99Q105.23 10.73 106.16 10.70L106.16 10.70L106.16 10.40L106.16 10.40Q106.16 9.31 105.96 8.93L105.96 8.93L105.96 8.93Q105.76 8.54 105.44 8.36L105.44 8.36L105.44 8.36Q105.13 8.18 104.71 8.18L104.71 8.18L104.71 8.18Q103.99 8.18 103.44 8.46L103.44 8.46L103.44 8.46Q104.19 7.84 104.54 7.64L104.54 7.64L104.54 7.64Q105.26 7.24 105.84 7.24L105.84 7.24L105.84 7.24Q106.43 7.24 106.72 7.41L106.72 7.41L106.72 7.41Q107.02 7.58 107.19 7.86L107.19 7.86L107.19 7.86Q107.48 8.35 107.48 9.28L107.48 9.28ZM104.27 13.04L104.27 13.04L104.27 13.04Q104.43 13.16 104.65 13.21L104.65 13.21L104.65 13.21Q104.87 13.27 105.30 13.27L105.30 13.27L105.30 13.27Q105.73 13.27 106.16 13.06L106.16 13.06L106.16 11.63L105.05 11.63L105.05 11.63Q104.45 11.63 104.01 11.71L104.01 11.71L104.01 11.71Q103.92 12.00 103.92 12.27L103.92 12.27L103.92 12.27Q103.92 12.54 104.01 12.73L104.01 12.73L104.01 12.73Q104.10 12.92 104.27 13.04ZM115.32 7.44L115.32 7.44L115.32 7.44Q114.50 8.65 113.32 8.65L113.32 8.65L113.32 8.65Q113.13 8.65 112.83 8.50L112.83 8.50L112.83 8.50Q112.25 8.22 112.05 8.22L112.05 8.22L112.05 8.22Q111.85 8.22 111.73 8.35L111.73 8.35L111.73 8.35Q111.60 8.48 111.52 8.71L111.52 8.71L111.52 8.71Q111.34 9.21 111.34 10.02L111.34 10.02L111.34 12.64L111.34 12.64Q111.34 13.08 111.60 13.23L111.60 13.23L111.60 13.23Q111.70 13.30 111.84 13.30L111.84 13.30L111.84 13.30Q111.99 13.30 112.14 13.23L112.14 13.23L112.14 13.23Q112.01 13.35 111.88 13.52L111.88 13.52L111.88 13.52Q111.75 13.69 111.58 13.84L111.58 13.84L111.58 13.84Q111.19 14.22 110.66 14.22L110.66 14.22L110.66 14.22Q110.39 14.22 110.20 14.04L110.20 14.04L110.20 14.04Q110.00 13.87 110.00 13.62L110.00 13.62L110.00 9.68L110.00 9.68Q110.00 9.44 110.01 9.20L110.01 9.20L110.01 9.20Q110.02 8.96 109.96 8.76L109.96 8.76L109.96 8.76Q109.83 8.33 109.22 8.33L109.22 8.33L109.22 8.33Q108.92 8.33 108.63 8.44L108.63 8.44L108.63 8.44Q108.81 8.38 109.09 8.12L109.09 8.12L109.09 8.12Q109.63 7.63 109.85 7.55L109.85 7.55L109.85 7.55Q110.28 7.39 110.55 7.39L110.55 7.39L110.55 7.39Q110.82 7.39 110.97 7.47L110.97 7.47L110.97 7.47Q111.12 7.55 111.20 7.68L111.20 7.68L111.20 7.68Q111.34 7.91 111.34 8.38L111.34 8.38L111.34 8.38Q111.54 8.23 111.77 8.04L111.77 8.04L111.77 8.04Q112.01 7.85 112.26 7.68L112.26 7.68L112.26 7.68Q112.87 7.28 113.32 7.28L113.32 7.28L113.32 7.28Q113.59 7.28 113.88 7.43L113.88 7.43L113.88 7.43Q114.17 7.58 114.32 7.65L114.32 7.65L114.32 7.65Q114.46 7.72 114.58 7.72L114.58 7.72L114.58 7.72Q114.86 7.72 115.32 7.44Z"></path></g><!----><!----></svg>