<svg data-v-423bf9ae="" xmlns="http://www.w3.org/2000/svg" viewBox="0 0 345.1866318912862 60" class="font"><!----><!----><!----><g data-v-423bf9ae="" id="296ce2dd-4f72-449e-afef-e4e586fe351d" fill="white" transform="matrix(4.698511969396391,0,0,4.698511969396391,-0.8587840781648595,4.792482596004472)"><path d="M9.69 11.13L9.69 11.13L9.69 11.13Q9.73 11.21 9.69 11.30L9.69 11.30L9.69 11.30Q9.60 11.49 9.49 11.61L9.49 11.61L9.49 11.61Q9.35 11.75 9.17 11.75L9.17 11.75L9.17 11.75Q8.69 11.75 8.34 11.24L8.34 11.24L8.34 11.24Q8.04 10.79 7.78 9.90L7.78 9.90L7.78 9.90Q7.32 8.26 7.32 5.95L7.32 5.95L7.32 5.95Q7.32 5.40 7.39 4.82L7.39 4.82L7.39 4.82Q7.46 4.24 7.49 3.61L7.49 3.61L7.49 3.58L7.49 3.58Q7.38 4.30 7.18 5.06L7.18 5.06L7.18 5.06Q6.99 5.82 6.79 6.78L6.79 6.78L6.79 6.78Q6.68 7.21 6.60 7.53L6.60 7.53L6.60 7.53Q6.52 7.84 6.44 8.12L6.44 8.12L6.44 8.12Q6.36 8.40 6.24 8.69L6.24 8.69L6.24 8.69Q6.12 8.99 5.92 9.37L5.92 9.37L5.92 9.37Q5.81 9.60 5.68 9.77L5.68 9.77L5.68 9.77Q5.54 9.94 5.42 10.05L5.42 10.05L5.42 10.05Q5.12 10.32 4.86 10.32L4.86 10.32L4.86 10.32Q4.52 10.32 4.21 10.05L4.21 10.05L4.21 10.05Q3.95 9.83 3.71 9.35L3.71 9.35L3.71 9.35Q3.49 8.90 3.36 8.27L3.36 8.27L3.36 8.27Q3.23 7.64 3.14 6.72L3.14 6.72L3.14 6.71L3.14 6.71Q2.94 5.15 2.72 3.51L2.72 3.51L2.72 3.51Q2.70 3.53 2.70 3.54L2.70 3.54L2.70 3.54Q2.70 3.56 2.69 3.57L2.69 3.57L2.69 3.57Q2.69 3.58 2.69 3.60L2.69 3.60L2.69 3.60Q2.58 3.89 2.44 4.30L2.44 4.30L2.44 4.30Q2.31 4.70 2.16 5.24L2.16 5.24L2.16 5.24Q2.00 5.67 1.87 6.07L1.87 6.07L1.87 6.07Q1.74 6.47 1.61 6.83L1.61 6.83L1.61 6.83Q1.51 7.11 1.44 7.37L1.44 7.37L1.44 7.37Q1.36 7.63 1.29 7.88L1.29 7.88L1.29 7.88Q1.20 8.23 1.11 8.54L1.11 8.54L1.11 8.54Q1.02 8.85 1.06 9.17L1.06 9.17L1.06 9.17Q1.11 9.48 1.19 9.68L1.19 9.68L1.19 9.68Q1.27 9.88 1.37 10.05L1.37 10.05L1.37 10.05Q1.43 10.16 1.46 10.29L1.46 10.29L1.46 10.29Q1.48 10.42 1.45 10.50L1.45 10.50L1.45 10.50Q1.41 10.58 1.29 10.61L1.29 10.61L1.29 10.61Q1.16 10.63 0.91 10.50L0.91 10.50L0.91 10.50Q0.77 10.43 0.66 10.30L0.66 10.30L0.66 10.30Q0.55 10.18 0.46 10.03L0.46 10.03L0.46 10.03Q0.38 9.88 0.33 9.74L0.33 9.74L0.33 9.74Q0.28 9.60 0.25 9.49L0.25 9.49L0.25 9.49Q0.14 9.09 0.21 8.60L0.21 8.60L0.21 8.60Q0.28 8.12 0.43 7.56L0.43 7.56L0.43 7.56Q0.46 7.45 0.55 7.21L0.55 7.21L0.55 7.21Q0.63 6.97 0.71 6.71L0.71 6.71L0.71 6.71Q0.80 6.45 0.88 6.24L0.88 6.24L0.88 6.24Q0.97 6.02 0.99 5.94L0.99 5.94L0.99 5.94Q1.13 5.57 1.26 5.19L1.26 5.19L1.26 5.19Q1.39 4.80 1.50 4.40L1.50 4.40L1.50 4.40Q1.89 3.09 2.08 2.03L2.08 2.03L2.08 2.03Q2.27 0.97 2.27 0.14L2.27 0.14L2.27 0.14Q2.27-0.28 2.42-0.52L2.42-0.52L2.42-0.52Q2.62-0.78 2.95-0.78L2.95-0.78L2.95-0.78Q3.36-0.78 4.06-0.25L4.06-0.25L4.06-0.25Q4.17-0.18 4.12-0.03L4.12-0.03L4.12-0.03Q4.09 0.04 4.06 0.18L4.06 0.18L4.06 0.18Q4.03 0.32 4.01 0.58L4.01 0.58L4.01 0.58Q3.99 0.84 3.98 1.23L3.98 1.23L3.98 1.23Q3.96 1.62 3.96 2.18L3.96 2.18L3.96 2.18Q3.96 3.46 4.05 4.60L4.05 4.60L4.05 4.60Q4.13 5.74 4.27 6.75L4.27 6.75L4.27 6.75Q4.35 7.35 4.41 7.77L4.41 7.77L4.41 7.77Q4.47 8.19 4.58 8.58L4.58 8.58L4.58 8.58Q4.63 8.76 4.76 8.93L4.76 8.93L4.76 8.93Q4.89 9.09 5.00 9.10L5.00 9.10L5.00 9.10Q5.00 9.10 5.03 9.07L5.03 9.07L5.03 9.07Q5.07 9.04 5.13 8.97L5.13 8.97L5.13 8.97Q5.19 8.89 5.29 8.74L5.29 8.74L5.29 8.74Q5.38 8.60 5.49 8.36L5.49 8.36L5.49 8.36Q5.67 7.97 5.80 7.42L5.80 7.42L5.80 7.42Q5.94 6.87 6.13 6.10L6.13 6.10L6.13 6.10Q6.48 4.70 6.69 3.54L6.69 3.54L6.69 3.54Q6.90 2.38 7.10 1.40L7.10 1.40L7.10 1.40Q7.11 1.20 7.12 1.07L7.12 1.07L7.12 1.07Q7.13 0.94 7.13 0.83L7.13 0.83L7.13 0.83Q7.13 0.73 7.13 0.63L7.13 0.63L7.13 0.63Q7.13 0.53 7.13 0.39L7.13 0.39L7.13 0.39Q7.13 0.22 7.15 0.10L7.15 0.10L7.15 0.10Q7.17-0.03 7.20-0.14L7.20-0.14L7.20-0.14Q7.22-0.22 7.31-0.36L7.31-0.36L7.31-0.36Q7.39-0.49 7.53-0.49L7.53-0.49L7.53-0.49Q7.97-0.49 8.25-0.43L8.25-0.43L8.25-0.43Q8.44-0.41 8.58-0.37L8.58-0.37L8.58-0.37Q8.71-0.34 8.82-0.28L8.82-0.28L8.82-0.28Q8.99-0.20 9.05-0.08L9.05-0.08L9.05-0.08Q9.11 0.03 9.13 0.10L9.13 0.10L9.13 0.10Q9.13 0.18 9.11 0.21L9.11 0.21L9.11 0.21Q9.09 0.25 9.04 0.43L9.04 0.43L9.04 0.43Q9.00 0.60 8.93 1.04L8.93 1.04L8.93 1.04Q8.88 1.39 8.82 1.86L8.82 1.86L8.82 1.86Q8.76 2.32 8.69 2.91L8.69 2.91L8.69 2.91Q8.44 5.29 8.44 6.72L8.44 6.72L8.44 6.72Q8.44 8.93 8.74 9.94L8.74 9.94L8.74 9.94Q9.02 10.86 9.56 11.02L9.56 11.02L9.56 11.02Q9.66 11.05 9.69 11.13ZM13.96 5.49L13.96 5.49L13.96 5.49Q14.01 5.49 14.01 5.56L14.01 5.56L14.01 5.56Q14 5.63 14 5.92L14 5.92L14 5.92Q14 6.44 13.40 8.26L13.40 8.26L13.40 8.26Q13.16 8.96 12.98 9.38L12.98 9.38L12.98 9.38Q12.80 9.80 12.65 10.02L12.65 10.02L12.65 10.02Q12.50 10.23 12.38 10.30L12.38 10.30L12.38 10.30Q12.26 10.37 12.17 10.37L12.17 10.37L12.17 10.37Q11.48 10.37 11.24 9.38L11.24 9.38L11.24 9.38Q10.99 9.93 10.82 10.14L10.82 10.14L10.82 10.14Q10.54 10.54 10.16 10.54L10.16 10.54L10.16 10.54Q10.00 10.54 9.77 10.44L9.77 10.44L9.77 10.44Q9.53 10.33 9.34 10.00L9.34 10.00L9.34 10.00Q9.04 9.52 9.04 8.76L9.04 8.76L9.04 8.76Q9.04 8.15 9.14 7.53L9.14 7.53L9.14 7.53Q9.24 6.90 9.48 6.12L9.48 6.12L9.48 6.12Q10.04 4.28 10.82 4.28L10.82 4.28L10.82 4.28Q11.10 4.28 11.41 4.55L11.41 4.55L11.41 4.55Q11.44 4.56 11.45 4.58L11.45 4.58L11.45 4.58Q11.45 4.59 11.48 4.61L11.48 4.61L11.48 4.61Q11.56 3.89 11.70 2.82L11.70 2.82L11.70 2.82Q11.83 1.75 12.01 0.45L12.01 0.45L12.01 0.45Q12.00 0.34 12.02 0.11L12.02 0.11L12.02 0.11Q12.04-0.11 12.24-0.20L12.24-0.20L12.28-0.21L12.60-0.21L12.60-0.21Q12.78-0.21 12.87-0.13L12.87-0.13L12.87-0.13Q12.96-0.06 13.03 0.07L13.03 0.07L13.03 0.07Q13.13 0.22 13.10 0.55L13.10 0.55L13.09 0.56L13.09 0.56Q12.96 1.22 12.83 1.90L12.83 1.90L12.83 1.90Q12.70 2.58 12.54 3.37L12.54 3.37L12.54 3.37Q12.53 3.49 12.44 4.18L12.44 4.18L12.44 4.18Q12.35 4.87 12.18 6.17L12.18 6.17L12.18 6.17Q11.93 8.09 11.93 8.65L11.93 8.65L11.93 8.65Q11.94 9.10 11.99 9.29L11.99 9.29L11.99 9.29Q12.04 9.48 12.07 9.53L12.07 9.53L12.07 9.53Q12.14 9.46 12.27 9.18L12.27 9.18L12.27 9.18Q12.40 8.89 12.71 8.19L12.71 8.19L12.71 8.19Q12.95 7.64 13.17 7.07L13.17 7.07L13.17 7.07Q13.40 6.50 13.55 5.99L13.55 5.99L13.55 5.99Q13.57 5.94 13.59 5.85L13.59 5.85L13.59 5.85Q13.62 5.77 13.66 5.68L13.66 5.68L13.66 5.68Q13.71 5.60 13.78 5.54L13.78 5.54L13.78 5.54Q13.85 5.49 13.96 5.49ZM11.23 6.41L11.23 6.40L11.23 6.40Q11.26 6.16 11.27 6.06L11.27 6.06L11.27 6.06Q11.28 5.96 11.28 5.85L11.28 5.85L11.28 5.85Q11.28 5.50 11.19 5.44L11.19 5.44L11.19 5.44Q11.10 5.38 11.05 5.38L11.05 5.38L11.05 5.38Q11.03 5.38 10.98 5.38L10.98 5.38L10.98 5.38Q10.93 5.38 10.84 5.46L10.84 5.46L10.84 5.46Q10.75 5.54 10.63 5.75L10.63 5.75L10.63 5.75Q10.51 5.95 10.37 6.37L10.37 6.37L10.37 6.37Q9.98 7.50 9.98 8.46L9.98 8.46L9.98 8.46Q9.98 8.81 10.00 9.04L10.00 9.04L10.00 9.04Q10.01 9.27 10.03 9.41L10.03 9.41L10.03 9.41Q10.05 9.55 10.08 9.61L10.08 9.61L10.08 9.61Q10.11 9.67 10.14 9.70L10.14 9.70L10.14 9.70Q10.23 9.76 10.35 9.55L10.35 9.55L10.35 9.55Q10.46 9.34 10.68 8.72L10.68 8.72L10.70 8.72L10.70 8.72Q10.99 7.97 11.16 7.21L11.16 7.21L11.16 7.21Q11.17 7.08 11.19 6.89L11.19 6.89L11.19 6.89Q11.20 6.69 11.23 6.41L11.23 6.41ZM14.94 10.28L14.94 10.28L14.94 10.28Q14.85 10.51 14.79 10.54L14.79 10.54L14.79 10.54Q14.73 10.57 14.57 10.60L14.57 10.60L14.57 10.60Q14.42 10.63 14.27 10.54L14.27 10.54L14.27 10.54Q14.13 10.44 13.96 10.44L13.96 10.44L13.96 10.44Q13.83 10.49 13.72 10.32L13.72 10.32L13.72 10.32Q13.61 10.15 13.64 9.87L13.64 9.87L13.64 9.87Q13.68 9.67 13.72 9.56L13.72 9.56L13.72 9.56Q13.76 9.45 13.82 9.39L13.82 9.39L13.82 9.39Q13.87 9.34 13.93 9.33L13.93 9.33L13.93 9.33Q13.99 9.32 14.06 9.34L14.06 9.34L14.06 9.34Q14.11 9.35 14.15 9.36L14.15 9.36L14.15 9.36Q14.20 9.37 14.25 9.38L14.25 9.38L14.25 9.38Q14.43 9.42 14.60 9.41L14.60 9.41L14.60 9.41Q14.77 9.41 14.88 9.47L14.88 9.47L14.88 9.47Q14.99 9.53 15.02 9.71L15.02 9.71L15.02 9.71Q15.04 9.88 14.94 10.28ZM27.75 0L27.75 0L27.75 0Q28.11 0 28.28 0.17L28.28 0.17L28.28 0.17Q28.41 0.29 28.38 0.46L28.38 0.46L28.38 0.46Q28.36 0.60 28.32 0.68L28.32 0.68L28.32 0.68Q28.27 0.76 28.21 0.80L28.21 0.80L28.21 0.80Q28.14 0.84 28.05 0.89L28.05 0.89L28.05 0.89Q27.96 0.94 27.85 0.95L27.85 0.95L27.85 0.95Q27.48 0.98 27.26 1.00L27.26 1.00L27.26 1.00Q27.03 1.02 26.88 1.03L26.88 1.03L26.88 1.03Q26.73 1.04 26.59 1.04L26.59 1.04L26.59 1.04Q26.46 1.05 26.29 1.06L26.29 1.06L26.29 1.06Q26.12 1.06 25.89 1.08L25.89 1.08L25.89 1.08Q25.65 1.11 25.27 1.13L25.27 1.13L25.27 1.13Q25.20 1.58 25.09 2.31L25.09 2.31L25.09 2.31Q24.99 3.04 24.86 4.12L24.86 4.12L24.86 4.12Q24.47 7.21 24.36 9.30L24.36 9.30L24.36 9.30Q24.35 9.58 24.37 9.96L24.37 9.96L24.37 9.96Q24.40 10.35 24.47 10.84L24.47 10.84L24.47 10.84Q24.49 10.93 24.42 11.00L24.42 11.00L24.42 11.00Q24.36 11.06 24.28 11.06L24.28 11.06L24.25 11.06L24.25 11.06Q24.01 11.02 23.76 10.88L23.76 10.88L23.76 10.88Q23.73 10.86 23.72 10.86L23.72 10.86L23.72 10.86Q23.72 10.85 23.69 10.84L23.69 10.84L23.69 10.84Q23.32 10.42 23.32 9.44L23.32 9.44L23.32 9.44Q23.32 7.92 23.58 5.15L23.58 5.15L23.58 5.15Q23.83 2.42 23.83 1.68L23.83 1.68L23.83 1.68Q23.83 1.57 23.82 1.46L23.82 1.46L23.82 1.46Q23.81 1.36 23.81 1.26L23.81 1.26L23.81 1.26Q23.45 1.26 23.06 1.28L23.06 1.28L23.06 1.28Q22.67 1.30 22.27 1.36L22.27 1.36L22.27 1.36Q21.88 1.41 21.53 1.52L21.53 1.52L21.53 1.52Q21.18 1.62 20.93 1.79L20.93 1.79L20.93 1.79Q20.79 1.89 20.79 1.95L20.79 1.95L20.79 1.95Q20.79 1.97 20.82 2.03L20.82 2.03L20.82 2.03Q20.85 2.09 21.03 2.16L21.03 2.16L21.03 2.16Q21.18 2.23 21.44 2.27L21.44 2.27L21.44 2.27Q21.70 2.31 22.05 2.28L22.05 2.28L22.05 2.28Q22.22 2.27 22.48 2.23L22.48 2.23L22.48 2.23Q22.75 2.18 22.99 2.16L22.99 2.16L22.99 2.16Q23.23 2.13 23.40 2.14L23.40 2.14L23.40 2.14Q23.58 2.16 23.58 2.25L23.58 2.25L23.58 2.25Q23.58 2.31 23.55 2.37L23.55 2.37L23.55 2.37Q23.38 2.65 23.18 2.80L23.18 2.80L23.18 2.80Q22.97 2.95 22.74 3.04L22.74 3.04L22.74 3.04Q22.58 3.09 22.41 3.14L22.41 3.14L22.41 3.14Q22.25 3.18 21.84 3.19L21.84 3.19L21.84 3.19Q21.34 3.21 20.98 3.12L20.98 3.12L20.98 3.12Q20.62 3.02 20.38 2.86L20.38 2.86L20.38 2.86Q20.15 2.66 20.01 2.38L20.01 2.38L20.01 2.38Q19.87 2.10 19.89 1.69L19.89 1.69L19.89 1.69Q19.89 1.60 19.94 1.44L19.94 1.44L19.94 1.44Q19.98 1.27 20.08 1.11L20.08 1.11L20.08 1.11Q20.19 0.94 20.38 0.79L20.38 0.79L20.38 0.79Q20.58 0.64 20.89 0.56L20.89 0.56L20.89 0.56Q21.21 0.48 21.81 0.39L21.81 0.39L21.81 0.39Q22.41 0.31 23.21 0.24L23.21 0.24L23.21 0.24Q23.48 0.22 23.61 0.21L23.61 0.21L23.61 0.21Q23.74 0.20 23.84 0.19L23.84 0.19L23.84 0.19Q23.94 0.18 24.04 0.18L24.04 0.18L24.04 0.18Q24.14 0.18 24.32 0.17L24.32 0.17L24.32 0.17Q24.51 0.17 24.85 0.15L24.85 0.15L24.85 0.15Q25.19 0.14 25.75 0.11L25.75 0.11L25.75 0.11Q26.43 0.08 26.73 0.06L26.73 0.06L26.73 0.06Q27.03 0.04 27.17 0.03L27.17 0.03L27.17 0.03Q27.31 0.01 27.40 0.01L27.40 0.01L27.40 0.01Q27.48 0 27.75 0ZM30.21 5.49L30.21 5.49L30.21 5.49Q30.28 5.50 30.28 5.56L30.28 5.56L30.28 5.56Q30.27 5.63 30.27 5.92L30.27 5.92L30.27 5.92Q30.27 6.20 30.16 6.78L30.16 6.78L30.16 6.78Q30.04 7.35 29.76 8.25L29.76 8.25L29.76 8.25Q29.61 8.74 29.43 9.11L29.43 9.11L29.43 9.11Q29.25 9.49 29.11 9.74L29.11 9.74L29.11 9.74Q28.99 9.94 28.83 10.14L28.83 10.14L28.83 10.14Q28.67 10.33 28.43 10.33L28.43 10.33L28.43 10.33Q27.99 10.33 27.73 9.97L27.73 9.97L27.73 9.97Q27.69 9.90 27.64 9.82L27.64 9.82L27.64 9.82Q27.59 9.74 27.54 9.63L27.54 9.63L27.54 9.63Q27.17 10.64 26.52 10.64L26.52 10.64L26.52 10.64Q26.19 10.64 25.93 10.40L25.93 10.40L25.93 10.40Q25.42 9.88 25.47 8.23L25.47 8.23L25.47 8.23Q25.48 7.97 25.54 7.61L25.54 7.61L25.54 7.61Q25.59 7.25 25.68 6.85L25.68 6.85L25.68 6.85Q25.73 6.62 25.81 6.36L25.81 6.36L25.81 6.36Q25.89 6.09 25.98 5.82L25.98 5.82L25.98 5.82Q26.07 5.56 26.15 5.33L26.15 5.33L26.15 5.33Q26.24 5.11 26.31 4.97L26.31 4.97L26.31 4.97Q26.40 4.79 26.55 4.60L26.55 4.60L26.55 4.60Q26.70 4.41 26.91 4.41L26.91 4.41L26.91 4.41Q27.06 4.41 27.24 4.49L27.24 4.49L27.24 4.49Q27.43 4.56 27.59 4.70L27.59 4.70L27.59 4.70Q27.75 4.83 27.87 5.01L27.87 5.01L27.87 5.01Q27.99 5.19 28.01 5.39L28.01 5.39L28.01 5.39Q28.08 5.84 28.03 6.02L28.03 6.02L28.03 6.02Q27.97 6.20 27.92 6.29L27.92 6.29L27.92 6.29Q27.89 6.31 27.84 6.36L27.84 6.36L27.84 6.36Q27.79 6.40 27.73 6.42L27.73 6.42L27.73 6.42Q27.66 6.44 27.62 6.42L27.62 6.42L27.62 6.42Q27.57 6.40 27.55 6.30L27.55 6.30L27.55 6.30Q27.51 5.96 27.41 5.72L27.41 5.72L27.41 5.72Q27.31 5.47 27.13 5.45L27.13 5.45L27.13 5.45Q27.09 5.52 26.99 5.78L26.99 5.78L26.99 5.78Q26.89 6.05 26.71 6.69L26.71 6.69L26.71 6.69Q26.53 7.34 26.42 7.90L26.42 7.90L26.42 7.90Q26.33 8.57 26.33 9.28L26.33 9.28L26.33 9.28Q26.33 9.51 26.43 9.70L26.43 9.70L26.43 9.70Q26.46 9.76 26.53 9.79L26.53 9.79L26.53 9.79Q26.60 9.83 26.63 9.83L26.63 9.83L26.63 9.83Q26.68 9.83 26.81 9.59L26.81 9.59L26.81 9.59Q26.94 9.35 27.09 8.90L27.09 8.90L27.09 8.90Q27.24 8.50 27.29 8.15L27.29 8.15L27.29 8.15Q27.33 7.80 27.40 7.43L27.40 7.43L27.40 7.43Q27.43 7.32 27.44 7.22L27.44 7.22L27.44 7.22Q27.45 7.13 27.47 7.01L27.47 7.01L27.47 7.01Q27.48 6.90 27.46 6.86L27.46 6.86L27.46 6.86Q27.44 6.82 27.48 6.76L27.48 6.76L27.48 6.76Q27.52 6.71 27.57 6.71L27.57 6.71L27.57 6.71Q27.62 6.71 27.65 6.71L27.65 6.71L27.65 6.71Q27.68 6.71 27.72 6.71L27.72 6.71L27.72 6.71Q27.76 6.72 27.79 6.72L27.79 6.72L27.79 6.72Q27.85 6.72 27.89 6.75L27.89 6.75L27.89 6.75Q27.93 6.79 27.99 6.80L27.99 6.80L27.99 6.80Q28.04 6.82 28.08 6.84L28.08 6.84L28.08 6.84Q28.11 6.86 28.15 6.89L28.15 6.89L28.15 6.89Q28.21 6.90 28.27 6.93L28.27 6.93L28.27 6.93Q28.31 6.96 28.34 7L28.34 7L28.34 7Q28.38 7.04 28.35 7.10L28.35 7.10L28.35 7.10Q28.31 7.22 28.27 7.36L28.27 7.36L28.27 7.36Q28.24 7.50 28.21 7.64L28.21 7.64L28.21 7.64Q28.18 7.84 28.16 8.06L28.16 8.06L28.16 8.06Q28.14 8.29 28.11 8.50L28.11 8.50L28.11 8.50Q28.08 8.88 28.20 9.25L28.20 9.25L28.20 9.25Q28.25 9.41 28.29 9.46L28.29 9.46L28.29 9.46Q28.32 9.51 28.34 9.52L28.34 9.52L28.34 9.52Q28.35 9.52 28.38 9.48L28.38 9.48L28.38 9.48Q28.41 9.45 28.46 9.36L28.46 9.36L28.46 9.36Q28.52 9.27 28.61 9.09L28.61 9.09L28.61 9.09Q28.70 8.92 28.84 8.64L28.84 8.64L28.84 8.64Q29.12 8.06 29.25 7.59L29.25 7.59L29.25 7.59Q29.39 7.13 29.47 6.87L29.47 6.87L29.82 5.89L29.82 5.89Q29.85 5.78 29.93 5.62L29.93 5.62L29.93 5.62Q30.00 5.46 30.21 5.49ZM34.16 5.60L34.16 5.60L34.16 5.60Q34.22 5.60 34.35 5.66L34.35 5.66L34.35 5.66Q34.48 5.73 34.48 6.02L34.48 6.02L34.48 6.02Q34.48 6.48 33.94 8.12L33.94 8.12L33.94 8.12Q33.59 9.20 33.28 9.80L33.28 9.80L33.28 9.80Q32.94 10.44 32.59 10.44L32.59 10.44L32.59 10.44Q31.85 10.44 31.64 9.21L31.64 9.21L31.64 9.21Q31.60 9.02 31.56 8.68L31.56 8.68L31.56 8.68Q31.53 8.34 31.50 7.85L31.50 7.85L31.50 7.85Q31.42 8.20 31.30 8.63L31.30 8.63L31.30 8.63Q31.19 9.06 31.05 9.58L31.05 9.58L31.05 9.58Q31.02 9.65 30.98 9.78L30.98 9.78L30.98 9.78Q30.94 9.91 30.87 10.04L30.87 10.04L30.87 10.04Q30.80 10.18 30.68 10.28L30.68 10.28L30.68 10.28Q30.56 10.37 30.39 10.37L30.39 10.37L30.39 10.37Q30.31 10.37 30.19 10.35L30.19 10.35L30.19 10.35Q30.07 10.32 29.96 10.23L29.96 10.23L29.96 10.23Q29.85 10.15 29.76 10.00L29.76 10.00L29.76 10.00Q29.67 9.84 29.62 9.58L29.62 9.58L29.62 9.56L29.62 9.56Q29.61 9.28 29.60 8.99L29.60 8.99L29.60 8.99Q29.58 8.71 29.57 8.43L29.57 8.43L29.57 8.43Q29.53 7.81 29.57 7.21L29.57 7.21L29.57 7.21Q29.58 6.99 29.59 6.87L29.59 6.87L29.59 6.87Q29.60 6.76 29.61 6.71L29.61 6.71L29.50 6.47L29.50 6.47Q29.47 6.41 29.47 6.37L29.47 6.37L29.47 6.37Q29.50 6.06 29.52 5.94L29.52 5.94L29.52 5.94Q29.54 5.82 29.57 5.77L29.57 5.77L29.57 5.77Q29.69 5.40 30.13 5.40L30.13 5.40L30.13 5.40Q30.37 5.40 30.49 5.53L30.49 5.53L30.49 5.53Q30.62 5.66 30.62 5.87L30.62 5.87L30.62 5.87Q30.62 5.89 30.60 5.96L30.60 5.96L30.60 5.96Q30.59 6.02 30.52 6.27L30.52 6.27L30.52 6.27Q30.48 6.41 30.45 6.52L30.45 6.52L30.45 6.52Q30.42 6.64 30.42 6.75L30.42 6.75L30.42 6.75Q30.42 6.90 30.42 7.13L30.42 7.13L30.42 7.13Q30.42 7.35 30.41 7.63L30.41 7.63L30.41 7.63Q30.41 7.91 30.40 8.09L30.40 8.09L30.40 8.09Q30.39 8.27 30.39 8.36L30.39 8.36L30.39 8.36Q30.39 8.83 30.44 9.02L30.44 9.02L30.44 9.00L30.44 9.00Q30.55 8.60 30.62 8.32L30.62 8.32L30.62 8.32Q30.69 8.04 30.76 7.85L30.76 7.85L30.76 7.85Q31.18 6.55 31.26 5.57L31.26 5.57L31.26 5.57Q31.30 4.83 31.56 4.68L31.56 4.68L31.56 4.68Q31.61 4.63 31.68 4.63L31.68 4.63L31.68 4.63Q32.27 4.68 32.45 4.89L32.45 4.89L32.45 4.89Q32.63 5.11 32.63 5.32L32.63 5.32L32.63 5.36L32.63 5.36Q32.62 5.39 32.59 5.59L32.59 5.59L32.59 5.59Q32.56 5.78 32.47 6.36L32.47 6.36L32.47 6.36Q32.40 6.86 32.35 7.29L32.35 7.29L32.35 7.29Q32.31 7.71 32.31 8.08L32.31 8.08L32.31 8.08Q32.31 8.54 32.34 8.82L32.34 8.82L32.34 8.82Q32.37 9.10 32.41 9.25L32.41 9.25L32.41 9.25Q32.45 9.39 32.49 9.44L32.49 9.44L32.49 9.44Q32.52 9.49 32.54 9.49L32.54 9.49L32.54 9.49Q32.55 9.48 32.60 9.43L32.60 9.43L32.60 9.43Q32.65 9.38 32.73 9.23L32.73 9.23L32.73 9.23Q32.82 9.07 32.94 8.79L32.94 8.79L32.94 8.79Q33.07 8.51 33.22 8.05L33.22 8.05L33.22 8.05Q33.38 7.56 33.50 7.10L33.50 7.10L33.50 7.10Q33.63 6.64 33.73 6.22L33.73 6.22L33.73 6.22Q33.78 5.98 33.87 5.79L33.87 5.79L33.87 5.79Q33.96 5.60 34.16 5.60ZM36.02 4.56L36.02 4.56L36.02 4.56Q36.25 4.56 36.37 4.73L36.37 4.73L36.37 4.73Q36.50 4.90 36.55 5.14L36.55 5.14L36.55 5.14Q36.61 5.38 36.62 5.62L36.62 5.62L36.62 5.62Q36.62 5.87 36.62 6.01L36.62 6.01L36.62 6.01Q36.62 7.20 36.15 8.68L36.15 8.68L36.15 8.68Q35.88 9.56 35.60 9.97L35.60 9.97L35.60 9.97Q35.32 10.39 34.99 10.39L34.99 10.39L34.99 10.39Q34.43 10.39 34.13 9.53L34.13 9.53L34.13 9.53Q33.89 8.78 33.89 7.56L33.89 7.56L33.89 6.08L33.89 6.08Q33.84 5.85 33.92 5.71L33.92 5.71L33.92 5.70L33.94 5.68L33.94 5.68Q33.96 5.64 34.04 5.59L34.04 5.59L34.04 5.59Q34.12 5.54 34.26 5.54L34.26 5.54L34.26 5.54Q34.93 5.57 34.93 6.23L34.93 6.23L34.93 6.23Q34.93 6.38 34.92 6.58L34.92 6.58L34.92 6.58Q34.90 6.78 34.86 7.01L34.86 7.01L34.86 7.01Q34.83 7.25 34.82 7.43L34.82 7.43L34.82 7.43Q34.80 7.62 34.80 7.77L34.80 7.77L34.80 7.77Q34.80 8.25 34.83 8.55L34.83 8.55L34.83 8.55Q34.86 8.85 34.90 9.03L34.90 9.03L34.90 9.03Q34.93 9.21 34.97 9.30L34.97 9.30L34.97 9.30Q35 9.38 35.03 9.41L35.03 9.41L35.03 9.41Q35.07 9.34 35.18 9.09L35.18 9.09L35.18 9.09Q35.28 8.83 35.48 8.19L35.48 8.19L35.48 8.19Q35.64 7.56 35.74 7.11L35.74 7.11L35.74 7.11Q35.84 6.65 35.83 6.38L35.83 6.38L35.83 6.38Q35.85 5.67 35.81 5.36L35.81 5.36L35.81 5.36Q35.76 5.05 35.74 5.01L35.74 5.01L35.74 5.01Q35.71 4.93 35.71 4.84L35.71 4.84L35.71 4.84Q35.71 4.56 36.02 4.56ZM38.78 9.66L38.78 9.66L38.78 9.66Q38.42 10.44 37.88 10.44L37.88 10.44L37.88 10.44Q37.70 10.44 37.48 10.35L37.48 10.35L37.48 10.35Q37.27 10.25 37.07 9.93L37.07 9.93L37.07 9.93Q36.95 9.69 36.88 9.40L36.88 9.40L36.88 9.40Q36.81 9.11 36.81 8.75L36.81 8.75L36.81 8.75Q36.81 8.44 36.93 7.07L36.93 7.07L36.93 7.07Q37.00 6.40 37.03 5.99L37.03 5.99L37.03 5.99Q37.06 5.57 37.06 5.43L37.06 5.43L37.06 5.43Q37.06 5.29 37.06 5.22L37.06 5.22L37.06 5.22Q37.06 5.15 37.10 5.12L37.10 5.12L37.10 5.12Q37.14 5.10 37.25 5.11L37.25 5.11L37.25 5.11Q37.35 5.12 37.56 5.17L37.56 5.17L37.56 5.17Q37.95 5.24 38.06 5.35L38.06 5.35L38.06 5.35Q38.16 5.46 38.16 5.54L38.16 5.54L38.16 5.54Q38.16 5.59 38.14 5.67L38.14 5.67L38.14 5.67Q38.12 5.75 38.09 5.85L38.09 5.85L38.09 5.85Q38.07 5.95 38.05 6.03L38.05 6.03L38.05 6.03Q38.02 6.12 38.02 6.15L38.02 6.15L38.02 6.15Q38.00 6.26 37.95 6.55L37.95 6.55L37.95 6.55Q37.90 6.85 37.83 7.17L37.83 7.17L37.83 7.17Q37.74 7.62 37.71 7.99L37.71 7.99L37.71 7.99Q37.67 8.36 37.67 8.78L37.67 8.78L37.67 8.78Q37.67 8.85 37.68 8.97L37.68 8.97L37.68 8.97Q37.69 9.10 37.71 9.23L37.71 9.23L37.71 9.23Q37.73 9.37 37.78 9.46L37.78 9.46L37.78 9.46Q37.83 9.56 37.91 9.58L37.91 9.58L37.91 9.58Q37.94 9.56 38.02 9.44L38.02 9.44L38.02 9.44Q38.11 9.32 38.25 8.96L38.25 8.96L38.25 8.96Q38.28 8.88 38.44 8.50L38.44 8.50L38.44 8.50Q38.61 8.12 38.82 7.45L38.82 7.45L38.82 7.45Q38.89 7.22 39.00 6.90L39.00 6.90L39.00 6.90Q39.12 6.58 39.24 6.13L39.24 6.13L39.24 6.13Q39.26 6.08 39.28 5.99L39.28 5.99L39.28 5.99Q39.31 5.89 39.35 5.81L39.35 5.81L39.35 5.81Q39.40 5.73 39.47 5.67L39.47 5.67L39.47 5.67Q39.54 5.61 39.65 5.61L39.65 5.61L39.65 5.61Q39.69 5.61 39.75 5.68L39.75 5.68L39.75 5.68Q39.82 5.74 39.82 6.03L39.82 6.03L39.82 6.03Q39.82 6.10 39.80 6.22L39.80 6.22L39.80 6.22Q39.79 6.34 39.73 6.59L39.73 6.59L39.73 6.59Q39.68 6.83 39.57 7.21L39.57 7.21L39.57 7.21Q39.47 7.59 39.28 8.18L39.28 8.18L39.28 8.18Q39.09 8.81 38.97 9.16L38.97 9.16L38.97 9.16Q38.85 9.52 38.78 9.66ZM37.91 4.55L37.91 4.55L37.91 4.55Q37.55 4.55 37.34 4.27L37.34 4.27L37.34 4.27Q37.11 4.00 37.11 3.72L37.11 3.72L37.11 3.72Q37.11 3.49 37.34 3.26L37.34 3.26L37.34 3.26Q37.59 3.04 37.79 3.04L37.79 3.04L37.79 3.04Q38.12 3.04 38.30 3.23L38.30 3.23L38.30 3.23Q38.49 3.43 38.49 3.79L38.49 3.79L38.49 3.79Q38.49 4.05 38.42 4.20L38.42 4.20L38.42 4.20Q38.36 4.35 38.26 4.43L38.26 4.43L38.26 4.43Q38.16 4.51 38.07 4.53L38.07 4.53L38.07 4.53Q37.97 4.55 37.91 4.55ZM42.90 5.53L42.90 5.53L42.90 5.53Q42.95 5.53 43.09 5.59L43.09 5.59L43.09 5.59Q43.22 5.66 43.22 5.95L43.22 5.95L43.22 5.95Q43.22 6.44 42.63 8.29L42.63 8.29L42.63 8.29Q42.39 8.99 42.21 9.41L42.21 9.41L42.21 9.41Q42.03 9.83 41.88 10.05L41.88 10.05L41.88 10.05Q41.73 10.28 41.62 10.35L41.62 10.35L41.62 10.35Q41.50 10.42 41.40 10.42L41.40 10.42L41.40 10.42Q40.82 10.42 40.46 9.77L40.46 9.77L40.46 9.77Q40.40 9.70 40.36 9.49L40.36 9.49L40.36 9.49Q40.31 9.28 40.28 8.76L40.28 8.76L40.28 7.69L40.28 6.48L40.28 6.48Q40.28 6.45 40.22 6.35L40.22 6.35L40.22 6.35Q40.17 6.24 39.91 6.08L39.91 6.08L39.91 6.08Q39.83 6.52 39.58 7.39L39.58 7.39L39.58 7.39Q39.58 7.43 39.49 7.60L39.49 7.60L39.49 7.60Q39.47 7.66 39.45 7.69L39.45 7.69L39.45 7.69Q39.44 7.71 39.42 7.73L39.42 7.73L39.42 7.73Q39.42 7.78 39.35 7.83L39.35 7.83L39.35 7.83Q39.28 7.90 39.19 7.85L39.19 7.85L38.98 7.80L38.98 7.80Q38.82 7.74 38.82 7.60L38.82 7.60L38.82 7.60Q38.82 7.59 38.82 7.55L38.82 7.55L38.82 7.55Q38.82 7.52 38.84 7.43L38.84 7.43L38.84 7.43Q38.86 7.34 38.91 7.17L38.91 7.17L38.91 7.17Q38.95 7 39.03 6.71L39.03 6.71L39.03 6.71Q39.21 6.02 39.21 5.60L39.21 5.60L39.21 5.60Q39.21 5.57 39.20 5.47L39.20 5.47L39.20 5.47Q39.19 5.36 39.12 5.17L39.12 5.17L39.12 5.17Q38.98 4.83 38.98 4.56L38.98 4.56L38.98 4.56Q38.98 4.27 39.03 4.09L39.03 4.09L39.03 4.09Q39.09 3.91 39.17 3.80L39.17 3.80L39.17 3.80Q39.26 3.70 39.36 3.65L39.36 3.65L39.36 3.65Q39.47 3.61 39.56 3.61L39.56 3.61L39.56 3.61Q39.62 3.61 39.70 3.63L39.70 3.63L39.70 3.63Q39.79 3.65 39.87 3.72L39.87 3.72L39.87 3.72Q39.94 3.79 40.01 3.93L40.01 3.93L40.01 3.93Q40.07 4.06 40.08 4.27L40.08 4.27L40.08 4.27Q40.10 4.41 40.05 4.76L40.05 4.76L40.05 4.76Q40.03 4.96 40.03 5.05L40.03 5.05L40.03 5.05Q40.03 5.15 40.03 5.21L40.03 5.21L40.03 5.21Q40.04 5.24 40.14 5.31L40.14 5.31L40.14 5.31Q40.24 5.38 40.54 5.53L40.54 5.53L40.54 5.53Q41.30 5.89 41.30 6.47L41.30 6.47L41.30 6.47Q41.30 6.50 41.29 6.57L41.29 6.57L41.29 6.57Q41.29 6.65 41.28 6.80L41.28 6.80L41.28 6.80Q41.27 6.96 41.24 7.22L41.24 7.22L41.24 7.22Q41.22 7.49 41.17 7.91L41.17 7.91L41.17 7.91Q41.15 8.20 41.13 8.40L41.13 8.40L41.13 8.40Q41.10 8.60 41.09 8.72L41.09 8.72L41.09 8.72Q41.08 8.85 41.07 8.93L41.07 8.93L41.07 8.93Q41.06 9.02 41.06 9.10L41.06 9.10L41.06 9.10Q41.06 9.44 41.13 9.52L41.13 9.52L41.13 9.52Q41.20 9.60 41.27 9.60L41.27 9.60L41.27 9.60Q41.29 9.59 41.34 9.53L41.34 9.53L41.34 9.53Q41.38 9.46 41.46 9.30L41.46 9.30L41.46 9.30Q41.54 9.14 41.64 8.87L41.64 8.87L41.64 8.87Q41.75 8.60 41.90 8.16L41.90 8.16L41.90 8.16Q42.38 6.79 42.49 6.05L42.49 6.05L42.49 6.05Q42.53 5.73 42.66 5.63L42.66 5.63L42.66 5.63Q42.78 5.53 42.90 5.53ZM50.95 5.73L50.95 5.73L50.95 5.73Q51.28 5.88 51.67 6.10L51.67 6.10L51.67 6.10Q52.07 6.33 52.39 6.66L52.39 6.66L52.39 6.66Q52.71 6.99 52.93 7.41L52.93 7.41L52.93 7.41Q53.14 7.83 53.14 8.34L53.14 8.34L53.14 8.34Q53.14 8.78 52.98 9.29L52.98 9.29L52.98 9.29Q52.82 9.80 52.35 10.18L52.35 10.18L52.35 10.18Q52.08 10.37 51.63 10.58L51.63 10.58L51.63 10.58Q51.18 10.78 50.67 10.82L50.67 10.82L50.67 10.82Q50.15 10.86 49.58 10.78L49.58 10.78L49.58 10.78Q49.01 10.70 48.52 10.57L48.52 10.57L48.52 10.57Q47.50 10.35 46.61 9.83L46.61 9.83L46.61 9.83Q46.37 9.70 46.27 9.56L46.27 9.56L46.27 9.56Q46.14 9.39 46.14 9.18L46.14 9.18L46.14 9.18Q46.14 9.10 46.19 8.97L46.19 8.97L46.19 8.97Q46.23 8.85 46.42 8.76L46.42 8.76L46.42 8.76Q46.48 8.74 46.51 8.74L46.51 8.74L46.51 8.74Q46.58 8.74 46.62 8.78L46.62 8.78L46.62 8.78Q46.66 8.82 46.75 8.90L46.75 8.90L46.75 8.90Q46.82 8.96 46.88 9.03L46.88 9.03L46.88 9.03Q46.94 9.10 47.05 9.21L47.05 9.21L47.05 9.21Q47.08 9.23 47.26 9.29L47.26 9.29L47.26 9.29Q47.45 9.35 48.01 9.49L48.01 9.49L48.01 9.49Q48.66 9.66 49.28 9.80L49.28 9.80L49.28 9.80Q49.90 9.94 50.47 9.83L50.47 9.83L50.47 9.83Q51.03 9.70 51.34 9.49L51.34 9.49L51.34 9.49Q51.66 9.28 51.80 9.06L51.80 9.06L51.80 9.06Q51.94 8.85 51.97 8.66L51.97 8.66L51.97 8.66Q52.00 8.47 52.00 8.40L52.00 8.40L52.00 8.40Q52.00 8.15 51.84 7.89L51.84 7.89L51.84 7.89Q51.67 7.63 51.47 7.42L51.47 7.42L51.47 7.42Q51.27 7.21 51.08 7.07L51.08 7.07L51.08 7.07Q50.89 6.93 50.83 6.90L50.83 6.90L50.83 6.90Q50.65 6.80 50.22 6.67L50.22 6.67L50.22 6.67Q49.78 6.54 49.26 6.29L49.26 6.29L49.26 6.29Q48.73 6.05 48.17 5.64L48.17 5.64L48.17 5.64Q47.61 5.24 47.18 4.59L47.18 4.59L47.18 4.59Q47.01 4.35 46.94 4.02L46.94 4.02L46.94 4.02Q46.86 3.70 46.84 3.37L46.84 3.37L46.84 3.37Q46.82 3.04 46.84 2.74L46.84 2.74L46.84 2.74Q46.87 2.45 46.91 2.25L46.91 2.25L46.91 2.25Q47.05 1.65 47.36 1.02L47.36 1.02L47.36 1.02Q47.67 0.39 48.06-0.06L48.06-0.06L48.06-0.06Q48.45-0.50 48.92-0.76L48.92-0.76L48.92-0.76Q49.39-1.02 49.78-1.02L49.78-1.02L49.78-1.02Q50.32-1.02 50.81-0.83L50.81-0.83L50.81-0.83Q51.30-0.63 51.72-0.18L51.72-0.18L51.72-0.18Q52.11 0.22 52.28 0.68L52.28 0.68L52.28 0.68Q52.46 1.13 52.49 1.60L52.49 1.60L52.49 1.60Q52.50 1.88 52.51 1.94L52.51 1.94L52.51 1.94Q52.51 2.00 52.51 2.01L52.51 2.01L52.51 2.01Q52.51 2.02 52.51 2.06L52.51 2.06L52.51 2.06Q52.50 2.10 52.50 2.35L52.50 2.35L52.50 2.35Q52.50 2.90 52.40 3.15L52.40 3.15L52.40 3.15Q52.32 3.39 52.19 3.46L52.19 3.46L52.19 3.46Q52.07 3.53 51.98 3.53L51.98 3.53L51.98 3.53Q51.80 3.53 51.70 3.45L51.70 3.45L51.70 3.45Q51.60 3.37 51.55 3.30L51.55 3.30L51.55 3.30Q51.44 3.11 51.44 2.77L51.44 2.77L51.44 2.77Q51.44 2.48 51.44 2.39L51.44 2.39L51.44 2.39Q51.44 2.30 51.43 2.22L51.43 2.22L51.43 2.22Q51.42 2.14 51.41 2.02L51.41 2.02L51.41 2.02Q51.39 1.89 51.37 1.54L51.37 1.54L51.37 1.54Q51.34 1.25 51.22 1.03L51.22 1.03L51.22 1.03Q51.10 0.81 50.97 0.63L50.97 0.63L50.97 0.63Q50.88 0.50 50.69 0.39L50.69 0.39L50.69 0.39Q50.51 0.28 50.29 0.22L50.29 0.22L50.29 0.22Q50.06 0.17 49.83 0.18L49.83 0.18L49.83 0.18Q49.60 0.20 49.42 0.32L49.42 0.32L49.42 0.32Q49.18 0.48 48.99 0.64L48.99 0.64L48.99 0.64Q48.80 0.81 48.54 1.23L48.54 1.23L48.54 1.23Q48.38 1.47 48.29 1.76L48.29 1.76L48.29 1.76Q48.19 2.06 48.12 2.51L48.12 2.51L48.12 2.51Q48.09 2.63 48.08 2.83L48.08 2.83L48.08 2.83Q48.06 3.04 48.08 3.27L48.08 3.27L48.08 3.27Q48.09 3.50 48.15 3.75L48.15 3.75L48.15 3.75Q48.20 3.99 48.34 4.19L48.34 4.19L48.34 4.19Q48.66 4.65 48.93 4.87L48.93 4.87L48.93 4.87Q49.20 5.08 49.48 5.19L49.48 5.19L49.48 5.19Q49.76 5.31 50.11 5.40L50.11 5.40L50.11 5.40Q50.46 5.50 50.95 5.73ZM58.25 5.49L58.25 5.49L58.25 5.49Q58.32 5.50 58.32 5.56L58.32 5.56L58.32 5.56Q58.31 5.63 58.31 5.92L58.31 5.92L58.31 5.92Q58.31 6.20 58.20 6.78L58.20 6.78L58.20 6.78Q58.09 7.35 57.81 8.25L57.81 8.25L57.81 8.25Q57.65 8.74 57.47 9.11L57.47 9.11L57.47 9.11Q57.29 9.49 57.15 9.74L57.15 9.74L57.15 9.74Q57.04 9.94 56.88 10.14L56.88 10.14L56.88 10.14Q56.71 10.33 56.48 10.33L56.48 10.33L56.48 10.33Q56.03 10.33 55.78 9.97L55.78 9.97L55.78 9.97Q55.73 9.90 55.69 9.82L55.69 9.82L55.69 9.82Q55.64 9.74 55.58 9.63L55.58 9.63L55.58 9.63Q55.22 10.64 54.56 10.64L54.56 10.64L54.56 10.64Q54.24 10.64 53.97 10.40L53.97 10.40L53.97 10.40Q53.47 9.88 53.51 8.23L53.51 8.23L53.51 8.23Q53.52 7.97 53.58 7.61L53.58 7.61L53.58 7.61Q53.63 7.25 53.72 6.85L53.72 6.85L53.72 6.85Q53.77 6.62 53.85 6.36L53.85 6.36L53.85 6.36Q53.93 6.09 54.02 5.82L54.02 5.82L54.02 5.82Q54.11 5.56 54.19 5.33L54.19 5.33L54.19 5.33Q54.28 5.11 54.35 4.97L54.35 4.97L54.35 4.97Q54.45 4.79 54.59 4.60L54.59 4.60L54.59 4.60Q54.74 4.41 54.95 4.41L54.95 4.41L54.95 4.41Q55.10 4.41 55.29 4.49L55.29 4.49L55.29 4.49Q55.47 4.56 55.63 4.70L55.63 4.70L55.63 4.70Q55.79 4.83 55.91 5.01L55.91 5.01L55.91 5.01Q56.03 5.19 56.06 5.39L56.06 5.39L56.06 5.39Q56.13 5.84 56.07 6.02L56.07 6.02L56.07 6.02Q56.01 6.20 55.96 6.29L55.96 6.29L55.96 6.29Q55.93 6.31 55.88 6.36L55.88 6.36L55.88 6.36Q55.83 6.40 55.77 6.42L55.77 6.42L55.77 6.42Q55.71 6.44 55.66 6.42L55.66 6.42L55.66 6.42Q55.61 6.40 55.59 6.30L55.59 6.30L55.59 6.30Q55.55 5.96 55.45 5.72L55.45 5.72L55.45 5.72Q55.36 5.47 55.17 5.45L55.17 5.45L55.17 5.45Q55.13 5.52 55.03 5.78L55.03 5.78L55.03 5.78Q54.94 6.05 54.75 6.69L54.75 6.69L54.75 6.69Q54.57 7.34 54.46 7.90L54.46 7.90L54.46 7.90Q54.38 8.57 54.38 9.28L54.38 9.28L54.38 9.28Q54.38 9.51 54.47 9.70L54.47 9.70L54.47 9.70Q54.50 9.76 54.57 9.79L54.57 9.79L54.57 9.79Q54.64 9.83 54.67 9.83L54.67 9.83L54.67 9.83Q54.73 9.83 54.85 9.59L54.85 9.59L54.85 9.59Q54.98 9.35 55.13 8.90L55.13 8.90L55.13 8.90Q55.29 8.50 55.33 8.15L55.33 8.15L55.33 8.15Q55.37 7.80 55.44 7.43L55.44 7.43L55.44 7.43Q55.47 7.32 55.48 7.22L55.48 7.22L55.48 7.22Q55.50 7.13 55.51 7.01L55.51 7.01L55.51 7.01Q55.52 6.90 55.50 6.86L55.50 6.86L55.50 6.86Q55.48 6.82 55.52 6.76L55.52 6.76L55.52 6.76Q55.57 6.71 55.62 6.71L55.62 6.71L55.62 6.71Q55.66 6.71 55.69 6.71L55.69 6.71L55.69 6.71Q55.72 6.71 55.76 6.71L55.76 6.71L55.76 6.71Q55.80 6.72 55.83 6.72L55.83 6.72L55.83 6.72Q55.89 6.72 55.93 6.75L55.93 6.75L55.93 6.75Q55.97 6.79 56.03 6.80L56.03 6.80L56.03 6.80Q56.08 6.82 56.12 6.84L56.12 6.84L56.12 6.84Q56.15 6.86 56.20 6.89L56.20 6.89L56.20 6.89Q56.25 6.90 56.31 6.93L56.31 6.93L56.31 6.93Q56.35 6.96 56.38 7L56.38 7L56.38 7Q56.42 7.04 56.39 7.10L56.39 7.10L56.39 7.10Q56.35 7.22 56.31 7.36L56.31 7.36L56.31 7.36Q56.28 7.50 56.25 7.64L56.25 7.64L56.25 7.64Q56.22 7.84 56.20 8.06L56.20 8.06L56.20 8.06Q56.18 8.29 56.15 8.50L56.15 8.50L56.15 8.50Q56.13 8.88 56.24 9.25L56.24 9.25L56.24 9.25Q56.29 9.41 56.33 9.46L56.33 9.46L56.33 9.46Q56.36 9.51 56.38 9.52L56.38 9.52L56.38 9.52Q56.39 9.52 56.42 9.48L56.42 9.48L56.42 9.48Q56.45 9.45 56.50 9.36L56.50 9.36L56.50 9.36Q56.56 9.27 56.65 9.09L56.65 9.09L56.65 9.09Q56.74 8.92 56.88 8.64L56.88 8.64L56.88 8.64Q57.16 8.06 57.30 7.59L57.30 7.59L57.30 7.59Q57.43 7.13 57.51 6.87L57.51 6.87L57.86 5.89L57.86 5.89Q57.89 5.78 57.97 5.62L57.97 5.62L57.97 5.62Q58.04 5.46 58.25 5.49ZM61.42 5.53L61.42 5.53L61.42 5.53Q61.47 5.53 61.61 5.59L61.61 5.59L61.61 5.59Q61.74 5.66 61.74 5.95L61.74 5.95L61.74 5.95Q61.74 6.44 61.15 8.29L61.15 8.29L61.15 8.29Q60.91 8.99 60.73 9.41L60.73 9.41L60.73 9.41Q60.55 9.83 60.40 10.05L60.40 10.05L60.40 10.05Q60.26 10.28 60.14 10.35L60.14 10.35L60.14 10.35Q60.02 10.42 59.92 10.42L59.92 10.42L59.92 10.42Q59.35 10.42 58.98 9.77L58.98 9.77L58.98 9.77Q58.93 9.70 58.88 9.49L58.88 9.49L58.88 9.49Q58.83 9.28 58.80 8.76L58.80 8.76L58.80 7.69L58.80 6.48L58.80 6.48Q58.80 6.45 58.74 6.35L58.74 6.35L58.74 6.35Q58.69 6.24 58.44 6.08L58.44 6.08L58.44 6.08Q58.35 6.52 58.10 7.39L58.10 7.39L58.10 7.39Q58.10 7.43 58.02 7.60L58.02 7.60L58.02 7.60Q57.99 7.66 57.97 7.69L57.97 7.69L57.97 7.69Q57.96 7.71 57.95 7.73L57.95 7.73L57.95 7.73Q57.95 7.78 57.88 7.83L57.88 7.83L57.88 7.83Q57.81 7.90 57.71 7.85L57.71 7.85L57.50 7.80L57.50 7.80Q57.34 7.74 57.34 7.60L57.34 7.60L57.34 7.60Q57.34 7.59 57.34 7.55L57.34 7.55L57.34 7.55Q57.34 7.52 57.37 7.43L57.37 7.43L57.37 7.43Q57.39 7.34 57.43 7.17L57.43 7.17L57.43 7.17Q57.47 7 57.55 6.71L57.55 6.71L57.55 6.71Q57.74 6.02 57.74 5.60L57.74 5.60L57.74 5.60Q57.74 5.57 57.72 5.47L57.72 5.47L57.72 5.47Q57.71 5.36 57.64 5.17L57.64 5.17L57.64 5.17Q57.50 4.83 57.50 4.56L57.50 4.56L57.50 4.56Q57.50 4.27 57.55 4.09L57.55 4.09L57.55 4.09Q57.61 3.91 57.69 3.80L57.69 3.80L57.69 3.80Q57.78 3.70 57.88 3.65L57.88 3.65L57.88 3.65Q57.99 3.61 58.09 3.61L58.09 3.61L58.09 3.61Q58.14 3.61 58.23 3.63L58.23 3.63L58.23 3.63Q58.31 3.65 58.39 3.72L58.39 3.72L58.39 3.72Q58.46 3.79 58.53 3.93L58.53 3.93L58.53 3.93Q58.59 4.06 58.60 4.27L58.60 4.27L58.60 4.27Q58.62 4.41 58.58 4.76L58.58 4.76L58.58 4.76Q58.55 4.96 58.55 5.05L58.55 5.05L58.55 5.05Q58.55 5.15 58.55 5.21L58.55 5.21L58.55 5.21Q58.56 5.24 58.66 5.31L58.66 5.31L58.66 5.31Q58.76 5.38 59.07 5.53L59.07 5.53L59.07 5.53Q59.82 5.89 59.82 6.47L59.82 6.47L59.82 6.47Q59.82 6.50 59.81 6.57L59.81 6.57L59.81 6.57Q59.81 6.65 59.80 6.80L59.80 6.80L59.80 6.80Q59.79 6.96 59.77 7.22L59.77 7.22L59.77 7.22Q59.74 7.49 59.70 7.91L59.70 7.91L59.70 7.91Q59.67 8.20 59.65 8.40L59.65 8.40L59.65 8.40Q59.63 8.60 59.61 8.72L59.61 8.72L59.61 8.72Q59.60 8.85 59.59 8.93L59.59 8.93L59.59 8.93Q59.58 9.02 59.58 9.10L59.58 9.10L59.58 9.10Q59.58 9.44 59.65 9.52L59.65 9.52L59.65 9.52Q59.72 9.60 59.79 9.60L59.79 9.60L59.79 9.60Q59.81 9.59 59.86 9.53L59.86 9.53L59.86 9.53Q59.91 9.46 59.98 9.30L59.98 9.30L59.98 9.30Q60.06 9.14 60.16 8.87L60.16 8.87L60.16 8.87Q60.27 8.60 60.42 8.16L60.42 8.16L60.42 8.16Q60.90 6.79 61.01 6.05L61.01 6.05L61.01 6.05Q61.05 5.73 61.18 5.63L61.18 5.63L61.18 5.63Q61.31 5.53 61.42 5.53ZM66.25 5.68L66.25 5.68L66.25 5.68Q66.36 5.68 66.47 5.77L66.47 5.77L66.47 5.77Q66.57 5.85 66.57 6.05L66.57 6.05L66.57 6.05Q66.57 6.59 66.26 7.28L66.26 7.28L66.26 7.28Q65.91 8.09 65.45 8.09L65.45 8.09L65.45 8.09Q65.18 8.09 64.85 7.97L64.85 7.97L64.85 7.97Q64.78 8.30 64.72 8.65L64.72 8.65L64.72 8.65Q64.67 9.00 64.60 9.37L64.60 9.37L64.60 9.38L64.60 9.39L64.60 9.39Q64.43 9.94 64.16 10.11L64.16 10.11L64.16 10.11Q63.90 10.28 63.67 10.28L63.67 10.28L63.67 10.28Q63.13 10.28 62.78 9.52L62.78 9.52L62.78 9.52Q62.65 9.93 62.43 10.25L62.43 10.25L62.43 10.25Q62.22 10.57 61.85 10.57L61.85 10.57L61.85 10.57Q61.66 10.57 61.43 10.44L61.43 10.44L61.43 10.44Q61.19 10.32 61.04 9.91L61.04 9.91L61.04 9.91Q60.82 9.37 60.82 8.25L60.82 8.25L60.82 8.25Q60.82 8.23 60.82 8.16L60.82 8.16L60.82 8.16Q60.83 8.09 60.84 7.92L60.84 7.92L60.84 7.92Q60.84 7.76 60.87 7.47L60.87 7.47L60.87 7.47Q60.90 7.18 60.94 6.72L60.94 6.72L60.94 6.72Q60.98 6.20 61.02 5.91L61.02 5.91L61.02 5.91Q61.05 5.61 61.08 5.47L61.08 5.47L61.08 5.47Q61.10 5.32 61.10 5.28L61.10 5.28L61.10 5.28Q61.11 5.24 61.12 5.21L61.12 5.21L61.12 5.21Q61.25 4.90 61.59 4.90L61.59 4.90L61.59 4.90Q61.84 4.90 62.16 5.22L62.16 5.22L62.24 5.31L62.20 5.43L62.20 5.43Q61.66 6.82 61.66 8.64L61.66 8.64L61.66 8.64Q61.66 9.51 61.87 9.69L61.87 9.69L61.87 9.69Q62.09 9.31 62.26 8.68L62.26 8.68L62.26 8.68Q62.33 8.37 62.36 8.13L62.36 8.13L62.36 8.13Q62.40 7.88 62.40 7.69L62.40 7.69L62.40 7.69Q62.40 7.59 62.42 7.38L62.42 7.38L62.42 7.38Q62.44 7.17 62.47 6.85L62.47 6.85L62.47 6.85Q62.50 6.52 62.52 6.32L62.52 6.32L62.52 6.32Q62.54 6.12 62.54 6.01L62.54 6.01L62.54 6.01Q62.54 5.98 62.53 5.95L62.53 5.95L62.53 5.95Q62.52 5.92 62.52 5.89L62.52 5.89L62.52 5.87L62.52 5.85L62.44 5.54L62.51 5.46L62.51 5.46Q62.69 5.25 63.04 5.25L63.04 5.25L63.04 5.25Q63.56 5.25 63.56 5.73L63.56 5.73L63.56 5.73Q63.56 5.91 63.49 6.10L63.49 6.10L63.49 6.10Q63.41 6.40 63.41 6.45L63.41 6.45L63.41 6.45Q63.35 7.08 63.32 7.47L63.32 7.47L63.32 7.47Q63.29 7.85 63.29 8.01L63.29 8.01L63.29 8.01Q63.29 8.23 63.32 8.41L63.32 8.41L63.32 8.41Q63.34 8.60 63.36 8.75L63.36 8.75L63.36 8.75Q63.41 8.90 63.44 9.06L63.44 9.06L63.44 9.06Q63.48 9.23 63.50 9.38L63.50 9.38L63.50 9.38Q63.53 9.45 63.60 9.48L63.60 9.48L63.60 9.48Q63.64 9.44 63.74 9.21L63.74 9.21L63.74 9.21Q63.84 8.97 63.99 8.26L63.99 8.26L63.99 8.26Q64.16 7.46 64.16 7.18L64.16 7.18L64.16 7.18Q64.16 7.15 64.15 7.03L64.15 7.03L64.15 7.03Q64.13 6.90 64.08 6.58L64.08 6.58L64.08 6.58Q63.99 6.06 63.99 5.81L63.99 5.81L63.99 5.81Q63.99 5.31 64.00 5.17L64.00 5.17L64.00 5.17Q64.01 5.03 64.01 5.00L64.01 5.00L64.01 5.00Q64.08 4.48 64.39 4.35L64.39 4.35L64.47 4.31L64.55 4.35L64.55 4.35Q64.95 4.54 64.97 4.97L64.97 4.97L65.04 7.15L65.04 7.15Q65.06 7.18 65.08 7.20L65.08 7.20L65.08 7.20Q65.10 7.22 65.23 7.22L65.23 7.22L65.23 7.22Q65.25 7.22 65.32 7.22L65.32 7.22L65.32 7.22Q65.38 7.21 65.45 7.15L65.45 7.15L65.45 7.15Q65.52 7.08 65.60 6.96L65.60 6.96L65.60 6.96Q65.67 6.83 65.73 6.59L65.73 6.59L65.73 6.59Q65.84 6.19 65.88 6.05L65.88 6.05L65.88 6.05Q65.91 5.92 65.93 5.89L65.93 5.89L65.93 5.89Q66.00 5.68 66.25 5.68ZM70.17 5.49L70.17 5.49L70.17 5.49Q70.24 5.50 70.23 5.56L70.23 5.56L70.23 5.56Q70.22 5.63 70.22 5.92L70.22 5.92L70.22 5.92Q70.22 6.20 70.11 6.78L70.11 6.78L70.11 6.78Q70 7.35 69.72 8.25L69.72 8.25L69.72 8.25Q69.57 8.74 69.38 9.11L69.38 9.11L69.38 9.11Q69.20 9.49 69.06 9.74L69.06 9.74L69.06 9.74Q68.95 9.94 68.79 10.14L68.79 10.14L68.79 10.14Q68.63 10.33 68.39 10.33L68.39 10.33L68.39 10.33Q67.94 10.33 67.69 9.97L67.69 9.97L67.69 9.97Q67.65 9.90 67.60 9.82L67.60 9.82L67.60 9.82Q67.55 9.74 67.49 9.63L67.49 9.63L67.49 9.63Q67.13 10.64 66.47 10.64L66.47 10.64L66.47 10.64Q66.15 10.64 65.88 10.40L65.88 10.40L65.88 10.40Q65.38 9.88 65.42 8.23L65.42 8.23L65.42 8.23Q65.44 7.97 65.49 7.61L65.49 7.61L65.49 7.61Q65.55 7.25 65.63 6.85L65.63 6.85L65.63 6.85Q65.69 6.62 65.77 6.36L65.77 6.36L65.77 6.36Q65.84 6.09 65.93 5.82L65.93 5.82L65.93 5.82Q66.02 5.56 66.11 5.33L66.11 5.33L66.11 5.33Q66.19 5.11 66.26 4.97L66.26 4.97L66.26 4.97Q66.36 4.79 66.51 4.60L66.51 4.60L66.51 4.60Q66.65 4.41 66.86 4.41L66.86 4.41L66.86 4.41Q67.02 4.41 67.20 4.49L67.20 4.49L67.20 4.49Q67.38 4.56 67.54 4.70L67.54 4.70L67.54 4.70Q67.70 4.83 67.82 5.01L67.82 5.01L67.82 5.01Q67.94 5.19 67.97 5.39L67.97 5.39L67.97 5.39Q68.04 5.84 67.98 6.02L67.98 6.02L67.98 6.02Q67.93 6.20 67.87 6.29L67.87 6.29L67.87 6.29Q67.84 6.31 67.80 6.36L67.80 6.36L67.80 6.36Q67.75 6.40 67.68 6.42L67.68 6.42L67.68 6.42Q67.62 6.44 67.57 6.42L67.57 6.42L67.57 6.42Q67.52 6.40 67.51 6.30L67.51 6.30L67.51 6.30Q67.47 5.96 67.37 5.72L67.37 5.72L67.37 5.72Q67.27 5.47 67.09 5.45L67.09 5.45L67.09 5.45Q67.05 5.52 66.95 5.78L66.95 5.78L66.95 5.78Q66.85 6.05 66.67 6.69L66.67 6.69L66.67 6.69Q66.49 7.34 66.37 7.90L66.37 7.90L66.37 7.90Q66.29 8.57 66.29 9.28L66.29 9.28L66.29 9.28Q66.29 9.51 66.39 9.70L66.39 9.70L66.39 9.70Q66.42 9.76 66.49 9.79L66.49 9.79L66.49 9.79Q66.56 9.83 66.58 9.83L66.58 9.83L66.58 9.83Q66.64 9.83 66.77 9.59L66.77 9.59L66.77 9.59Q66.89 9.35 67.05 8.90L67.05 8.90L67.05 8.90Q67.20 8.50 67.24 8.15L67.24 8.15L67.24 8.15Q67.28 7.80 67.35 7.43L67.35 7.43L67.35 7.43Q67.38 7.32 67.40 7.22L67.40 7.22L67.40 7.22Q67.41 7.13 67.42 7.01L67.42 7.01L67.42 7.01Q67.44 6.90 67.42 6.86L67.42 6.86L67.42 6.86Q67.40 6.82 67.44 6.76L67.44 6.76L67.44 6.76Q67.48 6.71 67.53 6.71L67.53 6.71L67.53 6.71Q67.58 6.71 67.61 6.71L67.61 6.71L67.61 6.71Q67.63 6.71 67.68 6.71L67.68 6.71L67.68 6.71Q67.72 6.72 67.75 6.72L67.75 6.72L67.75 6.72Q67.80 6.72 67.84 6.75L67.84 6.75L67.84 6.75Q67.89 6.79 67.94 6.80L67.94 6.80L67.94 6.80Q68.00 6.82 68.03 6.84L68.03 6.84L68.03 6.84Q68.07 6.86 68.11 6.89L68.11 6.89L68.11 6.89Q68.17 6.90 68.22 6.93L68.22 6.93L68.22 6.93Q68.26 6.96 68.30 7L68.30 7L68.30 7Q68.33 7.04 68.31 7.10L68.31 7.10L68.31 7.10Q68.26 7.22 68.23 7.36L68.23 7.36L68.23 7.36Q68.19 7.50 68.17 7.64L68.17 7.64L68.17 7.64Q68.14 7.84 68.12 8.06L68.12 8.06L68.12 8.06Q68.10 8.29 68.07 8.50L68.07 8.50L68.07 8.50Q68.04 8.88 68.15 9.25L68.15 9.25L68.15 9.25Q68.21 9.41 68.24 9.46L68.24 9.46L68.24 9.46Q68.28 9.51 68.29 9.52L68.29 9.52L68.29 9.52Q68.31 9.52 68.33 9.48L68.33 9.48L68.33 9.48Q68.36 9.45 68.42 9.36L68.42 9.36L68.42 9.36Q68.47 9.27 68.56 9.09L68.56 9.09L68.56 9.09Q68.66 8.92 68.80 8.64L68.80 8.64L68.80 8.64Q69.08 8.06 69.21 7.59L69.21 7.59L69.21 7.59Q69.34 7.13 69.43 6.87L69.43 6.87L69.78 5.89L69.78 5.89Q69.80 5.78 69.88 5.62L69.88 5.62L69.88 5.62Q69.96 5.46 70.17 5.49ZM73.33 5.53L73.33 5.53L73.33 5.53Q73.39 5.53 73.52 5.59L73.52 5.59L73.52 5.59Q73.65 5.66 73.65 5.95L73.65 5.95L73.65 5.95Q73.65 6.44 73.07 8.29L73.07 8.29L73.07 8.29Q72.83 8.99 72.65 9.41L72.65 9.41L72.65 9.41Q72.46 9.83 72.32 10.05L72.32 10.05L72.32 10.05Q72.17 10.28 72.05 10.35L72.05 10.35L72.05 10.35Q71.93 10.42 71.83 10.42L71.83 10.42L71.83 10.42Q71.26 10.42 70.90 9.77L70.90 9.77L70.90 9.77Q70.84 9.70 70.79 9.49L70.79 9.49L70.79 9.49Q70.74 9.28 70.71 8.76L70.71 8.76L70.71 7.69L70.71 6.48L70.71 6.48Q70.71 6.45 70.66 6.35L70.66 6.35L70.66 6.35Q70.60 6.24 70.35 6.08L70.35 6.08L70.35 6.08Q70.27 6.52 70.01 7.39L70.01 7.39L70.01 7.39Q70.01 7.43 69.93 7.60L69.93 7.60L69.93 7.60Q69.90 7.66 69.89 7.69L69.89 7.69L69.89 7.69Q69.87 7.71 69.86 7.73L69.86 7.73L69.86 7.73Q69.86 7.78 69.79 7.83L69.79 7.83L69.79 7.83Q69.72 7.90 69.62 7.85L69.62 7.85L69.41 7.80L69.41 7.80Q69.26 7.74 69.26 7.60L69.26 7.60L69.26 7.60Q69.26 7.59 69.26 7.55L69.26 7.55L69.26 7.55Q69.26 7.52 69.28 7.43L69.28 7.43L69.28 7.43Q69.30 7.34 69.34 7.17L69.34 7.17L69.34 7.17Q69.38 7 69.47 6.71L69.47 6.71L69.47 6.71Q69.65 6.02 69.65 5.60L69.65 5.60L69.65 5.60Q69.65 5.57 69.64 5.47L69.64 5.47L69.64 5.47Q69.62 5.36 69.55 5.17L69.55 5.17L69.55 5.17Q69.41 4.83 69.41 4.56L69.41 4.56L69.41 4.56Q69.41 4.27 69.47 4.09L69.47 4.09L69.47 4.09Q69.52 3.91 69.61 3.80L69.61 3.80L69.61 3.80Q69.69 3.70 69.80 3.65L69.80 3.65L69.80 3.65Q69.90 3.61 70 3.61L70 3.61L70 3.61Q70.06 3.61 70.14 3.63L70.14 3.63L70.14 3.63Q70.22 3.65 70.30 3.72L70.30 3.72L70.30 3.72Q70.38 3.79 70.44 3.93L70.44 3.93L70.44 3.93Q70.50 4.06 70.52 4.27L70.52 4.27L70.52 4.27Q70.53 4.41 70.49 4.76L70.49 4.76L70.49 4.76Q70.46 4.96 70.46 5.05L70.46 5.05L70.46 5.05Q70.46 5.15 70.46 5.21L70.46 5.21L70.46 5.21Q70.48 5.24 70.57 5.31L70.57 5.31L70.57 5.31Q70.67 5.38 70.98 5.53L70.98 5.53L70.98 5.53Q71.74 5.89 71.74 6.47L71.74 6.47L71.74 6.47Q71.74 6.50 71.73 6.57L71.73 6.57L71.73 6.57Q71.72 6.65 71.72 6.80L71.72 6.80L71.72 6.80Q71.71 6.96 71.68 7.22L71.68 7.22L71.68 7.22Q71.65 7.49 71.61 7.91L71.61 7.91L71.61 7.91Q71.58 8.20 71.56 8.40L71.56 8.40L71.56 8.40Q71.54 8.60 71.53 8.72L71.53 8.72L71.53 8.72Q71.51 8.85 71.50 8.93L71.50 8.93L71.50 8.93Q71.50 9.02 71.50 9.10L71.50 9.10L71.50 9.10Q71.50 9.44 71.57 9.52L71.57 9.52L71.57 9.52Q71.64 9.60 71.71 9.60L71.71 9.60L71.71 9.60Q71.72 9.59 71.77 9.53L71.77 9.53L71.77 9.53Q71.82 9.46 71.90 9.30L71.90 9.30L71.90 9.30Q71.97 9.14 72.08 8.87L72.08 8.87L72.08 8.87Q72.18 8.60 72.34 8.16L72.34 8.16L72.34 8.16Q72.81 6.79 72.93 6.05L72.93 6.05L72.93 6.05Q72.97 5.73 73.09 5.63L73.09 5.63L73.09 5.63Q73.22 5.53 73.33 5.53Z"></path></g><!----><!----></svg>